<?xml version="1.0" encoding="UTF-8"?>
<svg version="1.1" xmlns="http://www.w3.org/2000/svg" width="3194" height="3194">
<path d="M0 0 C0 348.48 0 696.96 0 1056 C-31.88888889 1071.94444444 -31.88888889 1071.94444444 -47.296875 1079.2578125 C-54.68706197 1082.78787739 -61.9931712 1086.48476256 -69.30957031 1090.16455078 C-77.26533114 1094.15662524 -85.27439683 1098.02128116 -93.31640625 1101.8359375 C-100.59155794 1105.29838934 -107.80217912 1108.87984451 -115 1112.5 C-124.05599797 1117.05472861 -133.15783643 1121.49165057 -142.31640625 1125.8359375 C-149.59155794 1129.29838934 -156.80217912 1132.87984451 -164 1136.5 C-173.05599797 1141.05472861 -182.15783643 1145.49165057 -191.31640625 1149.8359375 C-199.69597859 1153.82401457 -207.98756074 1157.97884684 -216.27783203 1162.14868164 C-224.5567603 1166.30302033 -232.88588123 1170.34093726 -241.2590332 1174.30175781 C-247.19000456 1177.11075001 -253.03120661 1180.02752505 -258.79296875 1183.171875 C-261.45854086 1184.17205427 -262.34281666 1183.90686318 -265 1183 C-266.85253906 1181.8359375 -266.85253906 1181.8359375 -268.765625 1180.375 C-269.48242432 1179.83770264 -270.19922363 1179.30040527 -270.93774414 1178.74682617 C-271.70078857 1178.17037354 -272.46383301 1177.5939209 -273.25 1177 C-281.4985088 1170.91869097 -289.88610333 1165.67253922 -299 1161 C-299.67353516 1160.65098633 -300.34707031 1160.30197266 -301.04101562 1159.94238281 C-339.26532536 1140.36099657 -384.24060193 1136.66763259 -425.3046875 1149.27734375 C-440.8030178 1154.33985619 -455.86873468 1161.29167122 -469 1171 C-469.78375 1171.57363281 -470.5675 1172.14726562 -471.375 1172.73828125 C-477.21932889 1177.15196713 -482.64477798 1182.01029313 -488 1187 C-488.72960938 1187.66386719 -489.45921875 1188.32773438 -490.2109375 1189.01171875 C-516.8760133 1214.28096928 -533.25127915 1253.70639565 -534.26397705 1290.23330688 C-534.32663364 1293.90599077 -534.33013337 1297.57690873 -534.3125 1301.25 C-534.31026428 1302.40453674 -534.31026428 1302.40453674 -534.3079834 1303.58239746 C-534.26833016 1314.97708129 -533.7222825 1325.9005649 -531 1337 C-530.70996094 1338.26585938 -530.41992188 1339.53171875 -530.12109375 1340.8359375 C-520.44711335 1380.09853576 -496.98212228 1414.3937542 -462.6875 1436.125 C-460.47134383 1437.43886401 -458.24162993 1438.7300858 -456 1440 C-455.42507813 1440.32709961 -454.85015625 1440.65419922 -454.2578125 1440.99121094 C-430.17319847 1454.4664999 -403.57576248 1460.2288911 -376.1875 1460.25 C-375.40343781 1460.25067474 -374.61937561 1460.25134949 -373.81155396 1460.25204468 C-361.95920749 1460.23583411 -350.57415284 1459.76123476 -339 1457 C-337.92371338 1456.75854248 -337.92371338 1456.75854248 -336.82568359 1456.51220703 C-297.34748968 1447.47398406 -262.09327931 1422.92252897 -240.51196289 1388.61376953 C-222.44335518 1358.99475487 -216.45075334 1327.59308461 -215.4375 1293.25 C-215.39416442 1291.85936611 -215.35054622 1290.46874101 -215.30664062 1289.078125 C-215.20166251 1285.71882523 -215.09950417 1282.35946561 -215 1279 C-187.75584033 1265.36652543 -160.51066469 1251.73508349 -133.26405949 1238.10649708 C-130.05078792 1236.4992359 -126.83752506 1234.89195732 -123.62426758 1233.28466797 C-122.98453833 1232.96467219 -122.34480908 1232.64467641 -121.68569409 1232.31498379 C-111.31350371 1227.12671015 -100.94202037 1221.93702465 -90.57079548 1216.74682134 C-79.93698216 1211.42524669 -69.30241545 1206.10517998 -58.6671409 1200.7865262 C-52.69011992 1197.79738991 -46.71347924 1194.80749705 -40.73765755 1191.81596375 C-35.12030241 1189.00390841 -29.50202547 1186.19370378 -23.88301659 1183.38495445 C-21.81417424 1182.35039501 -19.74567806 1181.31514299 -17.67754364 1180.27916908 C-14.86744894 1178.87165676 -12.05615227 1177.4665757 -9.24452209 1176.06213379 C-7.99989695 1175.43763659 -7.99989695 1175.43763659 -6.73012787 1174.80052328 C-1.11412121 1172 -1.11412121 1172 0 1172 C0.06874012 1208.06899729 0.12156631 1244.13798305 0.15319599 1280.20703242 C0.15694789 1284.47005297 0.16083088 1288.73307339 0.16479492 1292.99609375 C0.16597532 1294.26907305 0.16597532 1294.26907305 0.16717956 1295.5677691 C0.18021604 1309.29000022 0.20386016 1323.01219345 0.23145839 1336.73440214 C0.25956158 1350.82572201 0.27618663 1364.9170221 0.28226548 1379.00836885 C0.28637175 1387.69608264 0.299318 1396.38368931 0.3237494 1405.07137011 C0.33966732 1411.03738225 0.34438673 1417.0033394 0.34050413 1422.96937121 C0.33859195 1426.40603117 0.34142097 1429.84250457 0.35761642 1433.27913094 C0.4448272 1454.97867595 0.15377172 1473.79567192 -15.4609375 1490.55078125 C-16.29882812 1491.35902344 -17.13671875 1492.16726563 -18 1493 C-18.55373291 1493.53842529 -19.10746582 1494.07685059 -19.67797852 1494.6315918 C-25.0032741 1499.57471191 -30.75826441 1502.8645243 -37.1875 1506.1875 C-39.34223031 1507.32737944 -41.49585796 1508.46934543 -43.6484375 1509.61328125 C-44.72061523 1510.18127441 -45.79279297 1510.74926758 -46.89746094 1511.33447266 C-51.41945309 1513.76200102 -55.8688538 1516.30760812 -60.3125 1518.875 C-68.25185352 1523.44817106 -76.23616674 1527.933619 -84.25 1532.375 C-93.05170731 1537.25309211 -101.84665075 1542.14247717 -110.625 1547.0625 C-111.64819336 1547.63597168 -112.67138672 1548.20944336 -113.72558594 1548.80029297 C-115.78620012 1549.95544636 -117.84674716 1551.1107195 -119.90722656 1552.26611328 C-125.10370745 1555.1793914 -130.30194696 1558.08952827 -135.5 1561 C-137.58334166 1562.1666518 -139.66667499 1563.33331846 -141.75 1564.5 C-244.875 1622.25 -348 1680 -1182.37939453 2147.25244141 C-1184.44810166 2148.41093035 -1186.51678681 2149.56945854 -1188.58544922 2150.72802734 C-1194.01737733 2153.7701471 -1199.44976483 2156.81144261 -1204.8828125 2159.8515625 C-1206.01138672 2160.48320312 -1207.13996094 2161.11484375 -1208.30273438 2161.765625 C-1210.45754072 2162.97160715 -1212.61248056 2164.17735084 -1214.76757812 2165.3828125 C-1215.74404297 2165.929375 -1216.72050781 2166.4759375 -1217.7265625 2167.0390625 C-1219.09409668 2167.80331543 -1219.09409668 2167.80331543 -1220.48925781 2168.58300781 C-1222.70250368 2169.83210146 -1224.89514851 2171.11060121 -1227.0859375 2172.3984375 C-1230 2174 -1230 2174 -1232 2174 C-1232 2019.89 -1232 1865.78 -1232 1707 C-1220.12 1700.565 -1220.12 1700.565 -1208 1694 C-1199.3868236 1689.13170724 -1199.3868236 1689.13170724 -1190.78125 1684.25 C-1183.90017133 1680.36069467 -1176.94044102 1676.62059956 -1169.98046875 1672.875 C-1163.10549062 1669.16554357 -1156.28935579 1665.36371 -1149.5 1661.5 C-1140.72262399 1656.5049406 -1131.87339221 1651.66084238 -1122.98046875 1646.875 C-1116.10549062 1643.16554357 -1109.28935579 1639.36371 -1102.5 1635.5 C-1093.72262399 1630.5049406 -1084.87339221 1625.66084238 -1075.98046875 1620.875 C-1069.10549062 1617.16554357 -1062.28935579 1613.36371 -1055.5 1609.5 C-1046.72262399 1604.5049406 -1037.87339221 1599.66084238 -1028.98046875 1594.875 C-1022.10549062 1591.16554357 -1015.28935579 1587.36371 -1008.5 1583.5 C-999.72262399 1578.5049406 -990.87339221 1573.66084238 -981.98046875 1568.875 C-975.10549062 1565.16554357 -968.28935579 1561.36371 -961.5 1557.5 C-952.72262399 1552.5049406 -943.87339221 1547.66084238 -934.98046875 1542.875 C-928.10549062 1539.16554357 -921.28935579 1535.36371 -914.5 1531.5 C-905.72262399 1526.5049406 -896.87339221 1521.66084238 -887.98046875 1516.875 C-881.10549062 1513.16554357 -874.28935579 1509.36371 -867.5 1505.5 C-858.72262399 1500.5049406 -849.87339221 1495.66084238 -840.98046875 1490.875 C-834.10549062 1487.16554357 -827.28935579 1483.36371 -820.5 1479.5 C-811.72262399 1474.5049406 -802.87339221 1469.66084238 -793.98046875 1464.875 C-787.10549062 1461.16554357 -780.28935579 1457.36371 -773.5 1453.5 C-765.71651884 1449.07054971 -757.88546666 1444.74518609 -750 1440.5 C-716.89190492 1422.71831801 -716.89190492 1422.71831801 -688 1399 C-687.06414063 1398.07703125 -686.12828125 1397.1540625 -685.1640625 1396.203125 C-673.16074225 1383.75268966 -663.88933468 1368.82382396 -657 1353 C-656.69223633 1352.29359375 -656.38447266 1351.5871875 -656.06738281 1350.859375 C-651.98052216 1341.22514551 -649.21579073 1331.50004943 -647.125 1321.25 C-646.92173096 1320.25750244 -646.71846191 1319.26500488 -646.5090332 1318.24243164 C-643.71801242 1303.50405295 -643.85341621 1288.59312977 -643.8581543 1273.65332031 C-643.85511548 1271.64927596 -643.85159205 1269.6452323 -643.84762573 1267.64118958 C-643.83979528 1263.35582658 -643.83461432 1259.07047168 -643.83133507 1254.78510284 C-643.8253787 1248.00105802 -643.8087981 1241.21706435 -643.78999329 1234.43304443 C-643.78365784 1232.10246661 -643.77733219 1229.77188876 -643.77101612 1227.44131088 C-643.76785031 1226.27506542 -643.7646845 1225.10881995 -643.76142275 1223.90723372 C-643.71946422 1208.13526734 -643.68634335 1192.36332718 -643.67407227 1176.59130859 C-643.66568471 1165.91969907 -643.64317861 1155.24821898 -643.6047166 1144.57667422 C-643.58500008 1138.94096925 -643.57253729 1133.30545755 -643.57755089 1127.66971588 C-643.58220632 1122.37369004 -643.5683429 1117.07803152 -643.54053879 1111.7820797 C-643.53364547 1109.8451807 -643.53348032 1107.90824357 -643.54073906 1105.9713459 C-643.57440587 1095.97479174 -643.58220774 1087.14934595 -639 1078 C-638.37889107 1076.72796911 -638.37889107 1076.72796911 -637.74523449 1075.43024063 C-634.93356385 1069.95007797 -631.03572371 1065.66254391 -626.75 1061.3125 C-626.23767822 1060.78994629 -625.72535645 1060.26739258 -625.19750977 1059.72900391 C-617.82959017 1052.52305395 -609.20773388 1047.30351627 -600.02348328 1042.74768066 C-599.07108271 1042.26730205 -598.11868214 1041.78692344 -597.13742095 1041.2919879 C-593.97776055 1039.7007618 -590.81257532 1038.12087231 -587.6472168 1036.54101562 C-585.3678467 1035.39615974 -583.08880764 1034.25064457 -580.81007385 1033.10452271 C-575.28369344 1030.32745968 -569.75358705 1027.5579524 -564.22140183 1024.79247445 C-559.72628702 1022.54533442 -555.2325262 1020.29550936 -550.7396946 1018.04380798 C-536.60338029 1010.9593433 -522.46238423 1003.88431303 -508.31778792 996.81639951 C-497.16104047 991.24102295 -486.01166001 985.65108753 -474.86555424 980.05447131 C-463.40879163 974.30205931 -451.94687439 968.56004103 -440.47938472 962.82904196 C-434.04579307 959.61353492 -427.61438649 956.39382603 -421.18845177 953.16304016 C-415.15463034 950.12952884 -409.11375152 947.11056686 -403.06773949 944.1014061 C-400.84688724 942.99321706 -398.6284309 941.88021197 -396.41254044 940.76213455 C-393.39516665 939.24058292 -390.36974738 937.73641416 -387.34159851 936.2364502 C-386.46028391 935.78696219 -385.57896931 935.33747418 -384.67094821 934.87436533 C-383.85901218 934.47659938 -383.04707615 934.07883344 -382.210536 933.66901398 C-381.5130944 933.3200483 -380.81565279 932.97108262 -380.09707659 932.61154222 C-377.40315709 931.82595074 -375.67213643 932.2332922 -373 933 C-371.03393555 934.1640625 -371.03393555 934.1640625 -369.13671875 935.625 C-368.42314209 936.16229736 -367.70956543 936.69959473 -366.97436523 937.25317383 C-366.21969971 937.82962646 -365.46503418 938.4060791 -364.6875 939 C-356.46350453 945.09769 -348.10472968 950.33216054 -339 955 C-338.32646484 955.34901367 -337.65292969 955.69802734 -336.95898438 956.05761719 C-302.46141974 973.72988236 -260.63868023 978.72095049 -223 969 C-222.17081055 968.79632812 -221.34162109 968.59265625 -220.48730469 968.3828125 C-180.66124486 958.40705418 -147.02604307 932.77263459 -125.70507812 897.88085938 C-103.21776176 859.49051287 -98.44983364 813.21564835 -109.1875 770.375 C-119.92844756 730.58805155 -145.91944441 697.01912668 -181.33300781 676.14501953 C-220.40946467 653.88530331 -266.35338922 649.94826821 -309.47558594 661.29248047 C-330.94274857 667.30909916 -351.10517475 678.53467854 -368 693 C-369.24716797 694.06347656 -369.24716797 694.06347656 -370.51953125 695.1484375 C-401.17504082 721.98966708 -418.28082122 760.78947242 -422 801 C-422.16813647 803.91720736 -422.25052358 806.83277703 -422.31640625 809.75390625 C-422.33718735 810.54022934 -422.35796844 811.32655243 -422.37937927 812.13670349 C-422.44398588 814.61189307 -422.50333946 817.0871749 -422.5625 819.5625 C-422.60577011 821.25586835 -422.64938687 822.94922787 -422.69335938 824.64257812 C-422.79957391 828.76162782 -422.90108247 832.88076887 -423 837 C-493.234375 872.1171875 -563.46875 907.234375 -643.22822762 947.11391544 C-645.17045042 948.08515682 -647.11246831 949.05680812 -649.05425835 950.02891445 C-653.28817313 952.14800469 -657.5243881 954.26183962 -661.77038574 956.35662842 C-662.50111675 956.71832815 -663.23184776 957.08002789 -663.98472214 957.45268822 C-665.30126225 958.10390309 -666.61905822 958.75258995 -667.93852615 959.39785194 C-677.81832329 964.29315759 -686.6219345 970.87544659 -695 978 C-695.95777344 978.81082031 -696.91554688 979.62164063 -697.90234375 980.45703125 C-705.66602431 987.20155594 -711.97918663 994.68352887 -718 1003 C-718.64582031 1003.88147705 -718.64582031 1003.88147705 -719.3046875 1004.78076172 C-736.88558395 1029.02774808 -748.15943181 1059.82187729 -748.14476013 1089.91616821 C-748.14828698 1090.77883879 -748.15181382 1091.64150937 -748.15544754 1092.53032148 C-748.16606734 1095.40254412 -748.16980378 1098.27473351 -748.17358398 1101.14697266 C-748.1798946 1103.21408221 -748.18666096 1105.28119042 -748.19384766 1107.34829712 C-748.20848441 1111.79201602 -748.2202227 1116.23572978 -748.22979546 1120.67946243 C-748.2452942 1127.7158069 -748.26924438 1134.75210703 -748.29469299 1141.78842163 C-748.36576932 1161.79462882 -748.42560128 1181.80086131 -748.47680664 1201.80712891 C-748.50517712 1212.86249528 -748.54059408 1223.91781739 -748.58346039 1234.97313726 C-748.61012048 1241.9572823 -748.62809454 1248.94137733 -748.63949764 1255.9255631 C-748.64867324 1260.28565191 -748.66605818 1264.64568034 -748.68567657 1269.00573349 C-748.69310142 1271.0155466 -748.69723005 1273.02537525 -748.69767189 1275.03520203 C-748.70622693 1296.57964689 -750.1697927 1314.20752715 -765.5 1330.6875 C-766.7375 1331.8321875 -766.7375 1331.8321875 -768 1333 C-768.46043701 1333.43803955 -768.92087402 1333.8760791 -769.39526367 1334.32739258 C-774.38035157 1338.86257111 -779.86476403 1341.88801615 -785.8125 1345 C-787.96225046 1346.14451083 -790.11198965 1347.28904281 -792.26171875 1348.43359375 C-793.3707959 1349.01995605 -794.47987305 1349.60631836 -795.62255859 1350.21044922 C-801.1384746 1353.13307928 -806.63055835 1356.09975861 -812.125 1359.0625 C-813.21401611 1359.64837891 -814.30303223 1360.23425781 -815.42504883 1360.83789062 C-823.19026306 1365.01643965 -830.93531909 1369.2307587 -838.67236328 1373.46118164 C-846.87154732 1377.93999518 -855.09905962 1382.36545693 -863.328125 1386.7890625 C-870.23170858 1390.50260154 -877.12201109 1394.23928708 -884 1398 C-893.04109683 1402.94282916 -902.108165 1407.836177 -911.18310547 1412.71655273 C-918.50327316 1416.65380903 -925.81729338 1420.60216358 -933.125 1424.5625 C-934.10855469 1425.09552734 -935.09210938 1425.62855469 -936.10546875 1426.17773438 C-939.07045022 1427.78490238 -942.03525989 1429.3923868 -945 1431 C-957.36556219 1437.70515468 -969.73635911 1444.40006265 -982.125 1451.0625 C-990.99127603 1455.83105499 -999.83927526 1460.63146925 -1008.67236328 1465.46118164 C-1016.87154732 1469.93999518 -1025.09905962 1474.36545693 -1033.328125 1478.7890625 C-1040.23170858 1482.50260154 -1047.12201109 1486.23928708 -1054 1490 C-1063.04109683 1494.94282916 -1072.108165 1499.836177 -1081.18310547 1504.71655273 C-1088.50327316 1508.65380903 -1095.81729338 1512.60216358 -1103.125 1516.5625 C-1104.10855469 1517.09552734 -1105.09210938 1517.62855469 -1106.10546875 1518.17773438 C-1109.07045022 1519.78490238 -1112.03525989 1521.3923868 -1115 1523 C-1127.36556219 1529.70515468 -1139.73635911 1536.40006265 -1152.125 1543.0625 C-1160.98839006 1547.82950283 -1169.83393181 1552.62759588 -1178.66357422 1557.45678711 C-1186.93877349 1561.97809459 -1195.24615917 1566.43878593 -1203.55444336 1570.89892578 C-1211.02116231 1574.91457395 -1218.45049235 1578.99166952 -1225.83496094 1583.15673828 C-1230.89744225 1586 -1230.89744225 1586 -1232 1586 C-1232 1414.07 -1232 1242.14 -1232 1065 C-1219.18128776 1058.59064388 -1206.38094558 1052.22650222 -1193.44140625 1046.078125 C-1185.8175508 1042.4441556 -1178.22206135 1038.7520438 -1170.625 1035.0625 C-1159.94373674 1029.87627529 -1149.25352077 1024.71001456 -1138.54272461 1019.58496094 C-1132.62624633 1016.7507084 -1126.7209515 1013.89456778 -1120.82421875 1011.01953125 C-1105.97963153 1003.78531955 -1091.132637 996.61937949 -1076 990 C-1074.48986328 991.21623047 -1074.48986328 991.21623047 -1072.94921875 992.45703125 C-1035.61382795 1022.04305849 -992.02645442 1035.893169 -944.421875 1031.68359375 C-931.94113962 1030.16047083 -919.77825999 1027.40972778 -908 1023 C-906.9788208 1022.62319092 -906.9788208 1022.62319092 -905.93701172 1022.23876953 C-885.75342166 1014.67744754 -868.67411035 1003.83528181 -853 989 C-851.58074219 987.69482422 -851.58074219 987.69482422 -850.1328125 986.36328125 C-841.76232338 978.48960174 -835.23491936 969.62515676 -829 960 C-828.61328125 959.40461426 -828.2265625 958.80922852 -827.828125 958.19580078 C-805.96965319 923.89344353 -799.52800067 878.43861759 -808 839 C-817.96250428 796.59608454 -841.42061464 760.56408592 -878.6875 737.375 C-898.53027356 725.36451403 -920.07104245 718.21389154 -943 715 C-944.38445312 714.80277344 -944.38445312 714.80277344 -945.796875 714.6015625 C-987.23156179 709.84043389 -1030.86879753 721.46042341 -1063.65576172 747.30517578 C-1097.73461281 774.72437317 -1118.0454013 813.17245595 -1122.77761841 856.58602905 C-1123.12034844 860.30639242 -1123.23219228 864.01999738 -1123.31640625 867.75390625 C-1123.3475779 868.93339088 -1123.3475779 868.93339088 -1123.37937927 870.13670349 C-1123.44398588 872.61189307 -1123.50333946 875.0871749 -1123.5625 877.5625 C-1123.60577011 879.25586835 -1123.64938687 880.94922787 -1123.69335938 882.64257812 C-1123.80021631 886.76161067 -1123.90042667 890.88078582 -1124 895 C-1137.26797782 902.04980242 -1150.62882515 908.88919417 -1164.0703125 915.6015625 C-1166.01380123 916.57364474 -1167.95723064 917.54584558 -1169.90060425 918.51815796 C-1173.92511466 920.53114204 -1177.95032839 922.54271047 -1181.97607422 924.55322266 C-1187.14576869 927.13518617 -1192.31362051 929.72081451 -1197.4809742 932.30745888 C-1201.47090138 934.30422139 -1205.46177135 936.29909338 -1209.45293808 938.29337692 C-1211.36151383 939.2473309 -1213.26979183 940.20188081 -1215.17776871 941.15703201 C-1217.82084086 942.47982873 -1220.46516842 943.8000802 -1223.10986328 945.11962891 C-1224.29399307 945.71321198 -1224.29399307 945.71321198 -1225.50204468 946.31878662 C-1230.8857226 949 -1230.8857226 949 -1232 949 C-1232 861.88 -1232 774.76 -1232 685 C-1221.20754717 680.68301887 -1221.20754717 680.68301887 -1215.6875 679.25 C-1210.91517343 677.82096896 -1207.06443261 675.99659456 -1202.87890625 673.3046875 C-1201.73741181 672.58253227 -1200.59455268 671.86253031 -1199.45043945 671.14453125 C-1198.58861557 670.6036084 -1198.58861557 670.6036084 -1197.7093811 670.05175781 C-1192.99319644 667.14995666 -1188.10238258 664.53965536 -1183.25 661.875 C-1181.47488877 660.89526474 -1179.70043543 659.9143447 -1177.92599487 658.93339539 C-1176.72088691 658.26728305 -1175.51558514 657.60152123 -1174.31008911 656.93611145 C-1168.31796994 653.6277809 -1162.34499326 650.28557509 -1156.375 646.9375 C-1155.35245117 646.36435059 -1154.32990234 645.79120117 -1153.27636719 645.20068359 C-1151.2150852 644.04523461 -1149.15388701 642.8896361 -1147.09277344 641.73388672 C-1141.89629255 638.8206086 -1136.69805304 635.91047173 -1131.5 633 C-1129.41665834 631.8333482 -1127.33332501 630.66668154 -1125.25 629.5 C-1022.125 571.75 -919 514 -62.75 34.5 C-61.71818604 33.92217773 -60.68637207 33.34435547 -59.62329102 32.74902344 C-57.54567651 31.58557231 -55.46803989 30.42216067 -53.39038086 29.25878906 C-48.09436483 26.29325268 -42.79876742 23.3269729 -37.50390625 20.359375 C-32.30340413 17.44486816 -27.10171384 14.53249444 -21.89892578 11.62207031 C-19.9906978 10.55433689 -18.08281091 9.4859936 -16.17529297 8.41699219 C-13.61801532 6.98425331 -11.05924863 5.55421438 -8.5 4.125 C-7.745979 3.70186523 -6.99195801 3.27873047 -6.21508789 2.84277344 C-1.11442653 0 -1.11442653 0 0 0 Z " fill="#06CEE1" transform="translate(2861,896)"/>
<path d="M0 0 C8.42288175 4.21144088 16.67163225 8.38606831 24.8125 13.0625 C26.81091564 14.20101646 28.80962397 15.33901927 30.80859375 16.4765625 C31.82679199 17.05696289 32.84499023 17.63736328 33.89404297 18.23535156 C39.04114524 21.15967598 44.20796952 24.04857743 49.375 26.9375 C50.41309814 27.51830322 51.45119629 28.09910645 52.52075195 28.69750977 C54.62800538 29.87645772 56.735346 31.05524985 58.84277344 32.23388672 C64.06293711 35.15398137 69.28138679 38.07713566 74.5 41 C76.58332501 42.16668154 78.66665834 43.3333482 80.75 44.5 C183.875 102.25 287 160 1146.37451172 641.24975586 C1148.45943936 642.41729579 1150.54440034 643.58477619 1152.62939453 644.75219727 C1157.81360899 647.65501752 1162.99725417 650.55884467 1168.1796875 653.46484375 C1174.45081095 656.98070569 1180.72425605 660.49239211 1187 664 C1187.58489197 664.32691833 1188.16978394 664.65383667 1188.7723999 664.99066162 C1192.44109826 667.04078407 1196.11115759 669.08844269 1199.78277588 671.1333313 C1201.51189469 672.09680254 1203.24009238 673.06192633 1204.96826172 674.02709961 C1207.97172315 675.69809069 1210.98415947 677.35149047 1214 679 C1214.72558105 679.41088867 1215.45116211 679.82177734 1216.19873047 680.24511719 C1221.66880659 683.21189179 1225.37300806 683.67460161 1232 685 C1232 879.7 1232 1074.4 1232 1275 C1227.57751985 1273.52583995 1224.1515664 1272.15552025 1220.1328125 1269.98046875 C1219.01245605 1269.37710693 1217.89209961 1268.77374512 1216.73779297 1268.15209961 C1215.53347581 1267.49733024 1214.32921285 1266.84246118 1213.125 1266.1875 C1211.86757526 1265.50812832 1210.60992215 1264.82917915 1209.35205078 1264.15063477 C1206.16537971 1262.43016774 1202.98172306 1260.70420886 1199.79907227 1258.97631836 C1197.11217756 1257.51819759 1194.42322546 1256.06388534 1191.734375 1254.609375 C1187.82162239 1252.49196144 1183.91040127 1250.37175236 1180 1248.25 C1173.63295723 1244.79768525 1167.2541071 1241.36745564 1160.875 1237.9375 C1152.00868289 1233.16902202 1143.1607242 1228.36853045 1134.32763672 1223.53881836 C1127.23379909 1219.66380155 1120.11970194 1215.82725762 1113 1212 C1104.98598076 1207.69199435 1096.98313407 1203.36497875 1089 1199 C1079.95890317 1194.05717084 1070.891835 1189.163823 1061.81689453 1184.28344727 C1049.54322112 1177.68187748 1037.29221979 1171.03865251 1025.04101562 1164.39550781 C1022.06917141 1162.78420796 1019.09715403 1161.1732283 1016.125 1159.5625 C1015.14144531 1159.02947266 1014.15789063 1158.49644531 1013.14453125 1157.94726562 C1005.72851505 1153.93065867 998.30288233 1149.93211096 990.875 1145.9375 C982.00872397 1141.16894501 973.16072474 1136.36853075 964.32763672 1131.53881836 C957.23379909 1127.66380155 950.11970194 1123.82725762 943 1120 C934.98598076 1115.69199435 926.98313407 1111.36497875 919 1107 C909.95890317 1102.05717084 900.891835 1097.163823 891.81689453 1092.28344727 C879.54322112 1085.68187748 867.29221979 1079.03865251 855.04101562 1072.39550781 C852.06917141 1070.78420796 849.09715403 1069.1732283 846.125 1067.5625 C845.14144531 1067.02947266 844.15789063 1066.49644531 843.14453125 1065.94726562 C836.82833934 1062.52633724 830.50588479 1059.11723118 824.1796875 1055.71484375 C799.9667047 1042.69249485 799.9667047 1042.69249485 788.26464844 1036.24414062 C786.28820372 1035.15833184 784.30527127 1034.08573783 782.3203125 1033.015625 C775.357154 1029.1531096 769.63494576 1024.62484729 764 1019 C763.42507813 1018.43667969 762.85015625 1017.87335937 762.2578125 1017.29296875 C747.50649578 1001.58625587 748.57683128 980.79058263 748.70703125 960.79296875 C748.71263471 958.25564323 748.71690126 955.71831444 748.71989441 953.1809845 C748.73012401 947.21729287 748.75369514 941.25375145 748.78394288 935.29013664 C748.81766335 928.49192309 748.83401689 921.69370082 748.84902918 914.89542425 C748.88025088 900.9301903 748.93290013 886.96510442 749 873 C750.24937011 872.37041006 751.49932353 871.74197758 752.74951172 871.11401367 C753.44551483 870.76392746 754.14151794 870.41384125 754.85861206 870.05314636 C756.89202434 869.05310302 758.94061346 868.10360734 761.0078125 867.17578125 C797.93222643 850.54468388 828.03438462 821.30754778 842.52734375 783.1171875 C843.02187314 781.74610052 843.51246612 780.37359002 844 779 C844.29148926 778.18305664 844.58297852 777.36611328 844.88330078 776.52441406 C854.90633631 748.14941553 858.97434975 718.72126208 852 689 C851.72591309 687.82727539 851.72591309 687.82727539 851.44628906 686.63085938 C845.30800681 661.57376629 832.66844499 639.47338641 816 620 C815.20142578 619.01773437 815.20142578 619.01773437 814.38671875 618.015625 C810.66598664 613.48254975 806.5133057 609.7329678 802 606 C801.47760742 605.55994629 800.95521484 605.11989258 800.41699219 604.66650391 C772.31925752 581.06219561 736.89336471 565.68896662 700 564 C699.17113281 563.95875 698.34226562 563.9175 697.48828125 563.875 C665.13670088 563.08231197 632.06034635 574.00050665 606 593 C605.18499023 593.59288818 605.18499023 593.59288818 604.35351562 594.19775391 C569.40905425 619.88810906 545.31245183 659.77273726 538.453125 702.6875 C538.30359375 703.780625 538.1540625 704.87375 538 706 C537.87109375 706.845625 537.7421875 707.69125 537.609375 708.5625 C532.7357272 746.52565127 544.86650698 786.51630701 567.875 816.75 C587.41075734 841.24624745 612.89425794 861.96475265 643 872 C643.00238835 872.58786097 643.00477671 873.17572193 643.00723743 873.78139687 C643.06679325 888.19304087 643.14259471 902.60453493 643.23571491 917.01600075 C643.28037243 923.98574928 643.31985292 930.95545011 643.34643555 937.92529297 C643.37217007 944.66872361 643.41327062 951.41192948 643.46318626 958.15522385 C643.47969621 960.71039495 643.49130812 963.2656032 643.49761391 965.82081985 C643.62818623 1013.92838985 655.5474533 1056.05424296 690 1091 C701.91001254 1102.78883509 715.38106088 1111.09779317 730 1119 C730.94568848 1119.51191895 731.89137695 1120.02383789 732.86572266 1120.55126953 C738.32745115 1123.504278 743.79486127 1126.44658023 749.265625 1129.3828125 C764.11623048 1137.35403066 778.92319681 1145.40584402 793.71630859 1153.4831543 C803.45428233 1158.79818183 813.21075274 1164.07893033 822.96777344 1169.35888672 C828.9778434 1172.61167982 834.98633251 1175.86739207 840.99511719 1179.12255859 C846.01966003 1181.84439061 851.04458494 1184.56551229 856.0703125 1187.28515625 C866.62870592 1192.99975062 877.17862521 1198.72932125 887.71582031 1204.48291016 C897.4539873 1209.79796337 907.21059265 1215.07884369 916.96777344 1220.35888672 C922.9778434 1223.61167982 928.98633251 1226.86739207 934.99511719 1230.12255859 C940.01966003 1232.84439061 945.04458494 1235.56551229 950.0703125 1238.28515625 C960.62870592 1243.99975062 971.17862521 1249.72932125 981.71582031 1255.48291016 C991.4539873 1260.79796337 1001.21059265 1266.07884369 1010.96777344 1271.35888672 C1016.9778434 1274.61167982 1022.98633251 1277.86739207 1028.99511719 1281.12255859 C1034.01966003 1283.84439061 1039.04458494 1286.56551229 1044.0703125 1289.28515625 C1054.62870592 1294.99975062 1065.17862521 1300.72932125 1075.71582031 1306.48291016 C1085.4539873 1311.79796337 1095.21059265 1317.07884369 1104.96777344 1322.35888672 C1110.9778434 1325.61167982 1116.98633251 1328.86739207 1122.99511719 1332.12255859 C1128.01966003 1334.84439061 1133.04458494 1337.56551229 1138.0703125 1340.28515625 C1148.62870592 1345.99975062 1159.17862521 1351.72932125 1169.71582031 1357.48291016 C1176.42884637 1361.14685336 1183.14989477 1364.79577973 1189.875 1368.4375 C1190.85968262 1368.97109131 1191.84436523 1369.50468262 1192.85888672 1370.05444336 C1198.11498595 1372.90146147 1203.37517057 1375.74063082 1208.640625 1378.5703125 C1209.72617676 1379.15498291 1210.81172852 1379.73965332 1211.93017578 1380.34204102 C1214.00535871 1381.45955699 1216.08178805 1382.57476263 1218.15966797 1383.68725586 C1219.09955566 1384.19393799 1220.03944336 1384.70062012 1221.0078125 1385.22265625 C1221.82910645 1385.66359619 1222.65040039 1386.10453613 1223.49658203 1386.55883789 C1224.73577393 1387.27221313 1224.73577393 1387.27221313 1226 1388 C1227.02640583 1388.51207622 1228.05281165 1389.02415245 1229.11032069 1389.55174613 C1232 1392 1232 1392 1232.74519098 1395.8310492 C1232.77367912 1397.42485456 1232.76878294 1399.01945583 1232.73828697 1400.61322403 C1232.74867157 1401.93707857 1232.74867157 1401.93707857 1232.75926596 1403.28767765 C1232.77523959 1406.26653334 1232.74815976 1409.24347116 1232.7215271 1412.222229 C1232.72414186 1414.37058206 1232.72939222 1416.51893328 1232.7370621 1418.66727424 C1232.75052286 1424.58729848 1232.72641771 1430.50667543 1232.69639373 1436.42661715 C1232.6705544 1442.80424812 1232.67924613 1449.1818407 1232.68380737 1455.55950928 C1232.68695802 1466.61469607 1232.66829457 1477.66966755 1232.63438034 1488.72480011 C1232.59889652 1500.32126112 1232.57578841 1511.91763762 1232.56926346 1523.51415253 C1232.56885102 1524.23477789 1232.56843858 1524.95540326 1232.56801365 1525.69786576 C1232.56598369 1529.3574532 1232.56417537 1533.01704072 1232.56245239 1536.67662832 C1232.54984483 1562.60771863 1232.50940657 1588.53869849 1232.45263672 1614.46972656 C1232.397544 1639.663731 1232.35503555 1664.85770522 1232.32958984 1690.05175781 C1232.32880069 1690.82814078 1232.32801153 1691.60452375 1232.32719846 1692.40443348 C1232.31928744 1700.20108274 1232.31163254 1707.99773223 1232.3041653 1715.79438192 C1232.2889474 1731.67751844 1232.27201989 1747.56065298 1232.25405884 1763.44378662 C1232.2532351 1764.1740917 1232.25241136 1764.90439678 1232.25156266 1765.65683232 C1232.19634454 1814.43793518 1232.10114704 1863.21897308 1232 1912 C1228.13759455 1910.7442895 1224.63813458 1909.41262011 1221.078125 1907.453125 C1220.1485498 1906.94515381 1219.21897461 1906.43718262 1218.26123047 1905.91381836 C1217.26752441 1905.3647583 1216.27381836 1904.81569824 1215.25 1904.25 C1213.09138212 1903.06857859 1210.93251945 1901.88760434 1208.7734375 1900.70703125 C1207.65807617 1900.09553223 1206.54271484 1899.4840332 1205.39355469 1898.85400391 C1199.90233968 1895.85398328 1194.38792142 1892.89738043 1188.875 1889.9375 C1180.00836524 1885.16961738 1171.16072 1880.36852816 1162.32763672 1875.53881836 C1155.23379909 1871.66380155 1148.11970194 1867.82725762 1141 1864 C1132.98598076 1859.69199435 1124.98313407 1855.36497875 1117 1851 C1107.95890317 1846.05717084 1098.891835 1841.163823 1089.81689453 1836.28344727 C1077.54322112 1829.68187748 1065.29221979 1823.03865251 1053.04101562 1816.39550781 C1050.06917141 1814.78420796 1047.09715403 1813.1732283 1044.125 1811.5625 C1043.14144531 1811.02947266 1042.15789062 1810.49644531 1041.14453125 1809.94726562 C1033.72851505 1805.93065867 1026.30288233 1801.93211096 1018.875 1797.9375 C1010.00872397 1793.16894501 1001.16072474 1788.36853075 992.32763672 1783.53881836 C985.23379909 1779.66380155 978.11970194 1775.82725762 971 1772 C962.98598076 1767.69199435 954.98313407 1763.36497875 947 1759 C937.95890317 1754.05717084 928.891835 1749.163823 919.81689453 1744.28344727 C907.54322112 1737.68187748 895.29221979 1731.03865251 883.04101562 1724.39550781 C880.06917141 1722.78420796 877.09715403 1721.1732283 874.125 1719.5625 C873.14144531 1719.02947266 872.15789063 1718.49644531 871.14453125 1717.94726562 C863.72851505 1713.93065867 856.30288233 1709.93211096 848.875 1705.9375 C840.01449618 1701.17204948 831.17140794 1696.37628341 822.34521484 1691.54760742 C816.2175258 1688.19890937 810.07190772 1684.88491568 803.91796875 1681.5847168 C799.54630749 1679.23807148 795.18050761 1676.8806894 790.81640625 1674.52001953 C789.09735197 1673.59224284 787.37645104 1672.66786421 785.65234375 1671.74951172 C777.4917906 1667.40018465 770.52352539 1662.62017022 764 1656 C763.42765625 1655.43796875 762.8553125 1654.8759375 762.265625 1654.296875 C748.75513207 1639.95068147 748.55544803 1621.16432814 748.61523438 1602.73803711 C748.61112244 1600.61095897 748.60565791 1598.48388308 748.59895325 1596.35681152 C748.58727947 1591.79747396 748.5847257 1587.23825729 748.58930969 1582.67890739 C748.59615807 1575.45144941 748.58018353 1568.22414838 748.56091309 1560.99671936 C748.52314669 1545.64365465 748.51028072 1530.29060402 748.5 1514.9375 C748.48890142 1498.38204989 748.47334903 1481.82667305 748.42928743 1465.27127272 C748.41106109 1458.10559429 748.40699223 1450.94009748 748.41422272 1443.77440155 C748.41575842 1439.29164867 748.40487395 1434.80898437 748.39084435 1430.3262558 C748.386885 1428.26896311 748.38789127 1426.21165295 748.39461708 1424.15436745 C748.44541331 1407.30422249 747.20239016 1390.59650057 742.3125 1374.375 C742.05903809 1373.51511475 741.80557617 1372.65522949 741.54443359 1371.76928711 C733.77194719 1346.40729562 719.6463245 1323.74821698 701 1305 C700.51805176 1304.51402344 700.03610352 1304.02804687 699.53955078 1303.52734375 C685.07265783 1289.14373464 666.82949451 1279.55567805 649.48144531 1269.10009766 C644.43774695 1266.05941654 639.40552097 1262.99992061 634.375 1259.9375 C633.45033936 1259.37490479 632.52567871 1258.81230957 631.57299805 1258.23266602 C623.37820424 1253.24141419 615.2103043 1248.20684972 607.04248047 1243.17163086 C598.46091034 1237.8866163 589.85043738 1232.65072386 581.23086548 1227.42807007 C571.72433762 1221.66694064 562.25017356 1215.85503406 552.7890625 1210.01953125 C544.87977274 1205.14564688 536.94558212 1200.31435204 529 1195.5 C516.65185326 1188.01760827 504.34727265 1180.46672815 492.05908203 1172.88623047 C486.70840499 1169.58700215 481.3540826 1166.29369808 476 1163 C476.15380127 1161.94200195 476.30760254 1160.88400391 476.46606445 1159.79394531 C482.82296869 1114.62417311 471.19876615 1068.01142558 443.6875 1031.4375 C414.09984934 993.1943575 369.43316455 970.67370867 321.77734375 964.37890625 C303.32858835 962.56140642 283.03931538 962.62186635 265 967 C264.1558252 967.20399414 263.31165039 967.40798828 262.44189453 967.61816406 C250.43246342 970.61561335 239.11244665 974.55971248 228 980 C227.06945801 980.44400146 227.06945801 980.44400146 226.12011719 980.89697266 C186.56104409 999.93593373 158.76664495 1037.52245208 143.97265625 1078.05078125 C137.11018546 1097.9995148 133.56857129 1118.60182059 133.6875 1139.6875 C133.68965515 1140.38243561 133.6918103 1141.07737122 133.69403076 1141.79336548 C133.8180125 1166.84591796 138.95473594 1190.43870944 150 1213 C150.29600098 1213.62036133 150.59200195 1214.24072266 150.89697266 1214.87988281 C160.99509995 1235.86172916 176.68566416 1253.77004776 195 1268 C195.60344238 1268.47260254 196.20688477 1268.94520508 196.82861328 1269.43212891 C222.20970427 1289.02902695 252.37508617 1301.17797595 284 1306 C285.78857422 1306.28423828 285.78857422 1306.28423828 287.61328125 1306.57421875 C320.63603337 1310.46402528 353.23705813 1304.35011226 383 1290 C383.64146973 1289.69755371 384.28293945 1289.39510742 384.94384766 1289.08349609 C400.97062148 1281.45149836 415.32650186 1270.36022065 428 1258 C432.1033766 1259.50018491 435.77092836 1261.51315587 439.50390625 1263.75390625 C440.13054672 1264.12631943 440.75718719 1264.4987326 441.40281677 1264.88243103 C443.4582404 1266.10547752 445.51041689 1267.33385821 447.5625 1268.5625 C449.00835135 1269.42466734 450.45431648 1270.2866439 451.90039062 1271.1484375 C461.53161979 1276.89497612 471.12624777 1282.70050115 480.70266724 1288.53787231 C490.09418592 1294.26182993 499.53521564 1299.89811567 509 1305.5 C519.61130098 1311.78046857 530.18099227 1318.122925 540.70898438 1324.54199219 C550.09843993 1330.2645281 559.53794716 1335.89842839 569 1341.5 C578.87771788 1347.35131675 588.74582879 1353.21773273 598.56982422 1359.15893555 C600.30951473 1360.21042012 602.05120385 1361.25859581 603.79296875 1362.30664062 C622.53175372 1373.67000297 636.90942349 1385.01736012 642.53898048 1407.11572361 C643.15609635 1410.9765856 643.14314253 1414.79279143 643.13803101 1418.69139099 C643.14085229 1419.56627153 643.14367357 1420.44115207 643.14658034 1421.34254414 C643.15491352 1424.27451432 643.15626357 1427.20644668 643.15771484 1430.13842773 C643.16238445 1432.24137478 643.16752825 1434.34432081 643.17311096 1436.44726562 C643.18439018 1440.97941938 643.19282566 1445.51156656 643.19923019 1450.04372978 C643.20993163 1457.22905277 643.23018646 1464.414329 643.25234985 1471.59962463 C643.31418829 1492.03392368 643.3681347 1512.46822084 643.40136719 1532.90258789 C643.41979816 1544.18618804 643.44884618 1555.46971055 643.4893719 1566.75325352 C643.5103139 1572.71527183 643.5258807 1578.6771928 643.52817917 1584.6392498 C643.53035001 1590.26424937 643.54646341 1595.88904691 643.57256889 1601.51398468 C643.5796738 1603.5607472 643.58190662 1605.60753445 643.57846642 1607.65430641 C643.51320885 1653.92667777 657.86065356 1695.15130238 690.37109375 1728.51171875 C707.91034417 1745.83295636 730.56833006 1756.45348492 752.10546875 1767.8203125 C758.59765969 1771.24741808 765.06144141 1774.72294509 771.5 1778.25 C772.36471924 1778.7236499 773.22943848 1779.1972998 774.12036133 1779.68530273 C775.85537408 1780.63594345 777.59031894 1781.58670807 779.32519531 1782.53759766 C784.16746735 1785.18502459 789.02149844 1787.8107337 793.875 1790.4375 C794.87337891 1790.97793945 795.87175781 1791.51837891 796.90039062 1792.07519531 C798.92280096 1793.16985261 800.94526204 1794.26441615 802.96777344 1795.35888672 C808.9778434 1798.61167982 814.98633251 1801.86739207 820.99511719 1805.12255859 C826.01966003 1807.84439061 831.04458494 1810.56551229 836.0703125 1813.28515625 C846.62870592 1818.99975062 857.17862521 1824.72932125 867.71582031 1830.48291016 C877.4539873 1835.79796337 887.21059265 1841.07884369 896.96777344 1846.35888672 C902.9778434 1849.61167982 908.98633251 1852.86739207 914.99511719 1856.12255859 C920.01966003 1858.84439061 925.04458494 1861.56551229 930.0703125 1864.28515625 C940.62870592 1869.99975062 951.17862521 1875.72932125 961.71582031 1881.48291016 C971.4539873 1886.79796337 981.21059265 1892.07884369 990.96777344 1897.35888672 C996.9778434 1900.61167982 1002.98633251 1903.86739207 1008.99511719 1907.12255859 C1014.01966003 1909.84439061 1019.04458494 1912.56551229 1024.0703125 1915.28515625 C1034.62870592 1920.99975062 1045.17862521 1926.72932125 1055.71582031 1932.48291016 C1065.4539873 1937.79796337 1075.21059265 1943.07884369 1084.96777344 1948.35888672 C1090.9778434 1951.61167982 1096.98633251 1954.86739207 1102.99511719 1958.12255859 C1108.01966003 1960.84439061 1113.04458494 1963.56551229 1118.0703125 1966.28515625 C1128.62870592 1971.99975062 1139.17862521 1977.72932125 1149.71582031 1983.48291016 C1159.4539873 1988.79796337 1169.21059265 1994.07884369 1178.96777344 1999.35888672 C1181.98144608 2000.98995817 1184.99471572 2002.62177128 1188.0078125 2004.25390625 C1189.4937793 2005.05876465 1189.4937793 2005.05876465 1191.00976562 2005.87988281 C1192.9904624 2006.95302976 1194.97093421 2008.02659205 1196.95117188 2009.10058594 C1202.21941505 2011.95696696 1207.49278881 2014.8033287 1212.7734375 2017.63671875 C1214.43052734 2018.52810547 1214.43052734 2018.52810547 1216.12109375 2019.4375 C1218.24974757 2020.58232222 1220.3798996 2021.72436417 1222.51171875 2022.86328125 C1223.46433594 2023.37632813 1224.41695312 2023.889375 1225.3984375 2024.41796875 C1226.66179932 2025.09508911 1226.66179932 2025.09508911 1227.95068359 2025.78588867 C1230 2027 1230 2027 1232 2029 C1232.24609566 2031.5106144 1232.24609566 2031.5106144 1232.24050903 2034.74526978 C1232.24325836 2035.96807144 1232.24600769 2037.19087311 1232.24884033 2038.45072937 C1232.2417616 2039.81301977 1232.23449197 2041.17530919 1232.22705078 2042.53759766 C1232.22648688 2043.96644584 1232.22680282 2045.39529461 1232.22793579 2046.82414246 C1232.22851112 2050.71031417 1232.21672775 2054.59636316 1232.20278788 2058.48250628 C1232.19031048 2062.54109613 1232.18911239 2066.5996886 1232.18673706 2070.65829468 C1232.18051347 2078.34706179 1232.16409081 2086.03577224 1232.14403808 2093.72451437 C1232.12170637 2102.47650235 1232.11069253 2111.228493 1232.10064721 2119.98050237 C1232.07972531 2137.98703374 1232.04453232 2155.99351232 1232 2174 C1227.84857905 2172.65848594 1224.19319452 2171.15572838 1220.38671875 2169.015625 C1219.31663574 2168.41741943 1218.24655273 2167.81921387 1217.14404297 2167.20288086 C1216.00338379 2166.55843018 1214.86272461 2165.91397949 1213.6875 2165.25 C1212.48089909 2164.57317185 1211.274026 2163.8968287 1210.06689453 2163.22094727 C1207.58551479 2161.83055931 1205.10578023 2160.43730488 1202.62744141 2159.04150391 C1199.26933679 2157.15050319 1195.9068848 2155.26736604 1192.54296875 2153.38671875 C1187.39081649 2150.50615484 1182.24132226 2147.62088539 1177.09277344 2144.73388672 C1171.89629255 2141.8206086 1166.69805304 2138.91047173 1161.5 2136 C1159.41665834 2134.8333482 1157.33332501 2133.66668154 1155.25 2132.5 C1154.21875 2131.9225 1153.1875 2131.345 1152.125 2130.75 C1049 2073 945.875 2015.25 92.75 1537.5 C91.71858887 1536.92241943 90.68717773 1536.34483887 89.62451172 1535.74975586 C87.54277268 1534.58396248 85.46106691 1533.41810968 83.37939453 1532.25219727 C77.09420843 1528.73208013 70.80789471 1525.21399045 64.52026367 1521.69824219 C62.43351233 1520.53006314 60.34772662 1519.36015737 58.26293945 1518.18847656 C53.10400673 1515.28934927 47.93492138 1512.41309126 42.73828125 1509.58203125 C24.38383032 1499.52235212 9.3443197 1489.65761834 2 1469 C0.40921782 1463.12981573 -0.29001703 1457.61519651 -0.24839699 1451.54685205 C-0.25095317 1450.74092442 -0.25350934 1449.93499679 -0.25614297 1449.1046471 C-0.26225434 1446.41178261 -0.25415457 1443.71915413 -0.24609566 1441.02629757 C-0.2475756 1439.06479766 -0.24993349 1437.10329825 -0.25308865 1435.14180031 C-0.25922867 1429.73755704 -0.25287481 1424.33338897 -0.24453239 1418.9291513 C-0.23766659 1413.05524146 -0.24240509 1407.18133929 -0.24568737 1401.30742794 C-0.24983696 1391.00817037 -0.24660914 1380.70893412 -0.23841095 1370.40967941 C-0.22965369 1359.35937695 -0.2252659 1348.30908556 -0.22621536 1337.25877953 C-0.22627275 1336.56074898 -0.22633013 1335.86271842 -0.22638925 1335.14353543 C-0.22670201 1331.58425505 -0.2270859 1328.02497468 -0.22749493 1324.46569431 C-0.23030974 1298.70522316 -0.2234489 1272.94476187 -0.21146011 1247.18429375 C-0.19961558 1221.672825 -0.19191001 1196.16136047 -0.18975449 1170.64988899 C-0.18968566 1169.85762762 -0.18961684 1169.06536624 -0.18954593 1168.24909694 C-0.18891953 1161.01301928 -0.18834415 1153.77694161 -0.18782998 1146.54086394 C-0.18655118 1128.55271233 -0.18463253 1110.56456083 -0.18227959 1092.57640934 C-0.18217295 1091.7572648 -0.18206632 1090.93812026 -0.18195645 1090.09415315 C-0.17671329 1050.24660507 -0.16409813 1010.39905977 -0.15087891 970.55151367 C-0.14629559 956.72336835 -0.14174486 942.89522302 -0.1373291 929.06707764 C-0.1370552 928.20945575 -0.1367813 927.35183386 -0.13649911 926.46822343 C-0.12381114 886.60016703 -0.11635983 846.73211016 -0.11025951 806.86405228 C-0.10986338 804.27581477 -0.109465 801.68757725 -0.10906615 799.09933973 C-0.10642659 781.94696681 -0.10387729 764.79459388 -0.10138843 747.64222093 C-0.09643542 713.51320229 -0.09095205 679.38418374 -0.08510434 645.25516524 C-0.08482586 643.62984925 -0.08454775 642.00453326 -0.08427001 640.37921727 C-0.07176372 567.21041105 -0.05308778 494.04160687 -0.03173828 420.87280273 C-0.03153841 420.18767268 -0.03133854 419.50254263 -0.03113261 418.79665106 C-0.02113167 384.53110059 -0.01077865 350.26555023 0 316 C3.96185745 317.55474276 7.71061653 319.32320445 11.49609375 321.2734375 C12.11703415 321.59297897 12.73797455 321.91252045 13.37773132 322.241745 C15.39908349 323.28342062 17.41841466 324.3289381 19.4375 325.375 C20.13317078 325.73447723 20.82884155 326.09395447 21.54559326 326.46432495 C31.00205507 331.35260039 40.39063976 336.34528066 49.71069336 341.48974609 C57.23865171 345.6277918 64.86014479 349.57426887 72.5 353.5 C81.94395688 358.35286842 91.31530671 363.31292702 100.61328125 368.44140625 C108.17496853 372.59313792 115.82802882 376.55762152 123.5 380.5 C132.9826436 385.37292696 142.39911076 390.34305614 151.72973633 395.50292969 C156.76947128 398.27736923 161.84537871 400.96527209 166.97265625 403.57421875 C167.57168762 403.88009415 168.17071899 404.18596954 168.78790283 404.50111389 C171.70398554 405.98938096 174.62387126 407.46780579 177.55322266 408.92993164 C193.78086309 417.18560614 206.20405349 426.78972464 213 444 C215.27749022 451.39649472 215.26136606 458.6666581 215.1953125 466.34765625 C215.1924826 467.60009628 215.18965271 468.85253632 215.18673706 470.14292908 C215.17749154 473.44238106 215.15958161 476.74163072 215.1373291 480.04101562 C215.11672119 483.41989693 215.10770368 486.79880808 215.09765625 490.17773438 C215.0756863 496.78523419 215.04227677 503.39260057 215 510 C214.43472595 510.25005295 213.8694519 510.5001059 213.28704834 510.75773621 C210.68447627 511.91156354 208.08442789 513.07097646 205.484375 514.23046875 C204.59540527 514.62359253 203.70643555 515.01671631 202.79052734 515.42175293 C166.34269886 531.71282778 136.33092195 561.36549489 121.828125 598.78662109 C110.77842397 628.31981376 105.27462357 659.84743747 113 691 C113.17740723 691.75265137 113.35481445 692.50530273 113.53759766 693.28076172 C118.22557279 712.59331066 126.88294854 732.18115483 139 748 C139.4213623 748.556875 139.84272461 749.11375 140.27685547 749.6875 C148.05934232 759.94259095 156.01905706 769.79451326 166 778 C166.51949219 778.43715332 167.03898438 778.87430664 167.57421875 779.32470703 C201.30054159 807.66050243 241.78581584 820.99030358 285.78613281 817.79785156 C325.55245913 813.68623374 363.17319015 792.10615019 388.69189453 761.61523438 C415.96217058 727.94219475 430.25355958 685.60034746 426.78173828 642.27636719 C423.53186117 612.9989154 411.58124364 584.82584083 393 562 C392.5369043 561.43007324 392.07380859 560.86014648 391.59667969 560.27294922 C378.78696076 544.61803529 363.98487818 532.4817102 346.5625 522.25 C345.84908447 521.8267041 345.13566895 521.4034082 344.40063477 520.96728516 C336.89798687 516.67413555 328.94219115 513.38059468 321 510 C320.99120064 508.90150726 320.99120064 508.90150726 320.98222351 507.78082275 C320.92362777 500.78196576 320.85118984 493.78340841 320.76428509 486.78485489 C320.72009607 483.18927621 320.68073742 479.5937976 320.65356445 475.99804688 C320.49891119 456.1558348 320.08722406 436.53180854 314.3125 417.375 C314.05903809 416.51511475 313.80557617 415.65522949 313.54443359 414.76928711 C300.96538187 373.7232452 271.98114272 340.18976678 234.42578125 319.9375 C228.75342382 316.95329907 223.03504977 314.06109896 217.31103516 311.17773438 C212.43014975 308.71668789 207.56457698 306.22594293 202.69921875 303.734375 C200.8422143 302.78358946 198.98519914 301.83282486 197.12817383 300.88208008 C195.71322128 300.1576622 195.71322128 300.1576622 194.26968384 299.41860962 C189.38715935 296.92039068 184.50206765 294.42720246 179.6171875 291.93359375 C168.90658703 286.46522246 158.20232419 280.98454711 147.5 275.5 C133.17121515 268.15775265 118.83725183 260.82569942 104.5 253.5 C83.32606247 242.68081909 62.16210754 231.84231436 41 221 C20.705 210.605 20.705 210.605 0 200 C0 134 0 68 0 0 Z " fill="#06CEE1" transform="translate(291,896)"/>
<path d="M0 0 C0 97.68 0 195.36 0 296 C-10.56 301.61 -21.12 307.22 -32 313 C-42.43844067 318.59199514 -42.43844067 318.59199514 -52.875 324.1875 C-61.25178537 328.67506359 -69.64651421 333.1287006 -78.04101562 337.58300781 C-88.49993345 343.13335394 -98.94292811 348.71244446 -109.37573242 354.31176758 C-115.78071328 357.74694592 -122.19263338 361.16843139 -128.61328125 364.57421875 C-129.70224197 365.15195541 -129.70224197 365.15195541 -130.8132019 365.74136353 C-134.3517854 367.61833585 -137.89116204 369.49379237 -141.43164062 371.3671875 C-142.72136887 372.05075351 -144.0110831 372.73434597 -145.30078125 373.41796875 C-146.42653564 374.01375732 -147.55229004 374.6095459 -148.7121582 375.22338867 C-150.42319408 376.14796045 -152.13162605 377.08572627 -153.76132202 378.14712524 C-156.65694141 379.99793198 -158.41287811 381.04923211 -161.89295959 380.75741577 C-164.9552879 380.01089965 -167.37394822 379.03650786 -170.16894531 377.5949707 C-171.15147278 377.09387283 -172.13400024 376.59277496 -173.14630127 376.07649231 C-174.1963031 375.53175766 -175.24630493 374.98702301 -176.328125 374.42578125 C-178.59624569 373.27127125 -180.86447862 372.11698171 -183.1328125 370.96289062 C-186.67575988 369.14826378 -190.21656139 367.32973407 -193.75488281 365.50610352 C-226.08614363 348.87892276 -259.715527 337.34795293 -296 348 C-310.09449455 352.80361505 -322.60575397 361.04456005 -335.125 368.9375 C-343.72331398 374.33581173 -352.34722437 379.68942865 -361 385 C-369.35624971 390.13060569 -377.69098432 395.29324527 -386 400.5 C-396.54997616 407.11019083 -407.14678248 413.64217168 -417.75390625 420.16015625 C-430.76607738 428.15616228 -443.74281395 436.20773558 -456.6875 444.3125 C-467.34292224 450.98303777 -478.04332656 457.57865705 -488.75390625 464.16015625 C-501.76607738 472.15616228 -514.74281395 480.20773558 -527.6875 488.3125 C-538.34292224 494.98303777 -549.04332656 501.57865705 -559.75390625 508.16015625 C-572.76607738 516.15616228 -585.74281395 524.20773558 -598.6875 532.3125 C-609.34292224 538.98303777 -620.04332656 545.57865705 -630.75390625 552.16015625 C-644.88736264 560.84519439 -658.99038616 569.57946886 -673.03491211 578.40771484 C-677.90371587 581.46387159 -682.78682887 584.48414629 -687.73046875 587.41796875 C-715.48307376 603.97052034 -735.76585458 628.44165408 -745.17578125 659.609375 C-745.44777344 660.72828125 -745.71976563 661.8471875 -746 663 C-746.16723761 663.68756032 -746.33447521 664.37512064 -746.50678062 665.08351612 C-748.45149218 674.22149204 -748.30816358 683.30376771 -748.31884766 692.59838867 C-748.3281598 694.46206084 -748.33833036 696.32572888 -748.34928894 698.18939209 C-748.37645804 703.2195633 -748.39169932 708.24970672 -748.40471697 713.27993178 C-748.42040509 718.54768145 -748.44717706 723.81537482 -748.4727478 729.08308411 C-748.51943533 739.0452081 -748.55622783 749.00734281 -748.58942068 758.96951991 C-748.6277131 770.31663152 -748.67710451 781.66368644 -748.72740483 793.01075017 C-748.83057549 816.34045805 -748.91988403 839.67020236 -749 863 C-752.63580639 861.81692983 -755.92973215 860.64297597 -759.23046875 858.70703125 C-760.01905273 858.2495752 -760.80763672 857.79211914 -761.62011719 857.32080078 C-762.46735352 856.82306152 -763.31458984 856.32532227 -764.1875 855.8125 C-766.0707332 854.72113394 -767.95489384 853.63136712 -769.83984375 852.54296875 C-771.33813721 851.67744385 -771.33813721 851.67744385 -772.86669922 850.79443359 C-778.29780761 847.68405127 -783.77434731 844.65605953 -789.25 841.625 C-801.1546347 835.0280623 -813.03593152 828.39059993 -824.90722656 821.73388672 C-830.10370745 818.8206086 -835.30194696 815.91047173 -840.5 813 C-842.58334166 811.8333482 -844.66667499 810.66668154 -846.75 809.5 C-847.78125 808.9225 -848.8125 808.345 -849.875 807.75 C-886.33333333 787.33333333 -922.79166667 766.91666667 -959.25 746.5 C-960.28205566 745.92209717 -961.31411133 745.34419434 -962.37744141 744.7487793 C-964.4528034 743.58647922 -966.52799978 742.42388336 -968.60302734 741.26098633 C-973.9319762 738.27501679 -979.26403911 735.29483744 -984.6015625 732.32421875 C-985.69404297 731.71513672 -986.78652344 731.10605469 -987.91210938 730.47851562 C-989.96179583 729.33592445 -992.01247606 728.19511295 -994.06445312 727.05664062 C-995.94665129 726.00643785 -997.81557369 724.93197971 -999.66838646 723.83076191 C-1002.09124511 722.4993718 -1004.25527369 721.47705251 -1006.79982948 720.48737621 C-1011.7537839 718.36919298 -1016.73226098 716.08029748 -1018.8834796 710.85335946 C-1020.38742371 704.15035103 -1020.12883935 697.27491315 -1020.06787109 690.44458008 C-1020.10131765 688.13092618 -1020.14101062 685.81735544 -1020.1864624 683.50390625 C-1020.28889056 677.23214289 -1020.29543831 670.96375035 -1020.27833509 664.69130158 C-1020.27178695 659.44784687 -1020.30969248 654.20507646 -1020.34674513 648.96177787 C-1020.43740996 635.87776496 -1020.43337929 622.79567302 -1020.38759716 609.71150961 C-1020.35103581 598.37401077 -1020.43926821 587.04150951 -1020.58654694 575.70503787 C-1020.73691582 564.04016211 -1020.79898495 552.37786634 -1020.77409041 540.71201628 C-1020.76117156 534.17171979 -1020.78210871 527.63608067 -1020.89027023 521.09656715 C-1021.5120667 480.15133933 -1021.5120667 480.15133933 -1015.71562386 472.47623444 C-1010.43073053 467.35463214 -1004.6738866 464.73533221 -997.64435387 462.79086494 C-994.05266328 461.71667355 -991.47974997 460.05056838 -988.41796875 457.9140625 C-987.54333984 457.36492187 -986.66871094 456.81578125 -985.76757812 456.25 C-984.49043945 455.445625 -984.49043945 455.445625 -983.1875 454.625 C-974.81766262 449.37377178 -966.42057542 444.16946296 -958 439 C-949.64381856 433.8692835 -941.3089794 428.70681427 -933 423.5 C-923.60078369 417.60998978 -914.16346943 411.78445807 -904.7109375 405.98046875 C-897.4529985 401.52004085 -890.21871404 397.02360049 -883 392.5 C-873.60078369 386.60998978 -864.16346943 380.78445807 -854.7109375 374.98046875 C-847.4529985 370.52004085 -840.21871404 366.02360049 -833 361.5 C-823.60078369 355.60998978 -814.16346943 349.78445807 -804.7109375 343.98046875 C-797.45299798 339.52004053 -790.21874647 335.02354933 -783 330.5 C-772.45002384 323.88980917 -761.85321752 317.35782832 -751.24609375 310.83984375 C-738.23392262 302.84383772 -725.25718605 294.79226442 -712.3125 286.6875 C-700.61306898 279.36338889 -688.85791943 272.1314524 -677.09814453 264.90478516 C-672.31231472 261.96238609 -667.52986509 259.01457684 -662.75 256.0625 C-661.89639893 255.5375293 -661.04279785 255.01255859 -660.16333008 254.47167969 C-656.31807381 252.09783211 -652.50792704 249.69374794 -648.765625 247.16015625 C-648.12270508 246.72888428 -647.47978516 246.2976123 -646.81738281 245.85327148 C-645.14027352 244.71980334 -643.47576564 243.56774921 -641.8125 242.4140625 C-638.43218482 240.71451515 -637.55994329 240.99626058 -634 242 C-632.16021405 242.80946456 -630.34853777 243.68436992 -628.56152344 244.60449219 C-627.49560974 245.14885925 -626.42969604 245.69322632 -625.33148193 246.25408936 C-624.18568665 246.84570862 -623.03989136 247.43732788 -621.859375 248.046875 C-620.6521937 248.66217845 -619.44452222 249.27652103 -618.23638916 249.88995361 C-613.12855661 252.4848314 -608.02675161 255.09127408 -602.93359375 257.71484375 C-572.26129693 273.49853466 -544.21230024 282.16576979 -510 272 C-499.43519161 268.52376022 -489.79396161 263.42215272 -480.16796875 257.921875 C-474.00988969 254.41134272 -467.75394685 251.08561524 -461.5 247.75 C-459.68387512 246.77986157 -457.86794257 245.80936377 -456.05201721 244.83885193 C-454.83352548 244.18765812 -453.61496858 243.53658623 -452.39634705 242.88563538 C-446.2152852 239.58310643 -440.04432651 236.26189422 -433.875 232.9375 C-432.81087891 232.36418945 -431.74675781 231.79087891 -430.65039062 231.20019531 C-428.50613741 230.04484724 -426.36193155 228.88941127 -424.21777344 227.73388672 C-418.81254563 224.82129735 -413.40621432 221.9107577 -408 219 C-405.83332811 217.83334304 -403.66666144 216.66667637 -401.5 215.5 C-336.5 180.5 -271.5 145.5 -206.5 110.5 C-205.42766113 109.92258057 -204.35532227 109.34516113 -203.25048828 108.75024414 C-201.08221491 107.58272485 -198.91392062 106.41524443 -196.74560547 105.24780273 C-191.35334972 102.34449829 -185.96145065 99.4405355 -180.5703125 96.53515625 C-168.79916046 90.19244811 -157.02031078 83.86439133 -145.23205566 77.55352783 C-133.55036977 71.29931678 -121.88226822 65.0200883 -110.21777344 58.73388672 C-104.81254563 55.82129735 -99.40621432 52.9107577 -94 50 C-91.83332811 48.83334304 -89.66666144 47.66667637 -87.5 46.5 C-74.5 39.5 -61.5 32.5 -48.5 25.5 C-46.88834961 24.63217896 -46.88834961 24.63217896 -45.24414062 23.74682617 C-43.09702615 22.59070004 -40.94989104 21.43461223 -38.80273438 20.27856445 C-33.70452827 17.5335854 -28.60654197 14.78820028 -23.50927734 12.04147339 C-21.08943641 10.73754099 -18.66947879 9.43382523 -16.24951172 8.13012695 C-14.53211228 7.20480192 -12.81488264 6.27916177 -11.09765625 5.35351562 C-10.06511719 4.79728516 -9.03257812 4.24105469 -7.96875 3.66796875 C-7.05544922 3.17578857 -6.14214844 2.6836084 -5.20117188 2.17651367 C-1.12907242 0 -1.12907242 0 0 0 Z " fill="#06CEE1" transform="translate(1844,361)"/>
<path d="M0 0 C1.69797145 1.007532 3.39595814 2.0150393 5.09481812 3.02107239 C6.83790113 4.05585321 8.57693111 5.09718742 10.31542969 6.13964844 C15.71782211 9.36080764 21.17170845 12.49106307 26.625 15.625 C28.78908933 16.87365142 30.95315159 18.12234976 33.1171875 19.37109375 C39.98495656 23.32714902 46.86643728 27.25902609 53.75 31.1875 C68.18125789 39.42347059 82.5725623 47.72798868 96.95898438 56.04199219 C109.20658605 63.1187979 121.46475118 70.17626447 133.75 77.1875 C146.00622878 84.18217369 158.23490455 91.22380307 170.453125 98.28466797 C173.32622775 99.94291462 176.20097501 101.59822841 179.07693481 103.25151062 C180.85997818 104.27652072 182.64267977 105.30212285 184.42529297 106.32788086 C186.65803902 107.6123814 188.89139769 108.89581792 191.12548828 110.17797852 C194.00691351 111.83684898 196.88124549 113.5068261 199.75 115.1875 C200.57983398 115.67186523 201.40966797 116.15623047 202.26464844 116.65527344 C204.12933401 117.77441178 205.94651206 118.97219997 207.75 120.1875 C207.75 120.8475 207.75 121.5075 207.75 122.1875 C206.96165771 122.60410889 206.17331543 123.02071777 205.36108398 123.44995117 C185.68812111 133.85375212 185.68812111 133.85375212 166.25 144.6875 C156.75392783 150.11869449 147.13527955 155.29180815 137.47235107 160.41738892 C129.37116962 164.71477027 121.2990584 169.05256386 113.30029297 173.53857422 C107.25565668 176.92396534 101.16162987 180.21398961 95.0625 183.5 C87.19548744 187.7415295 79.38733946 192.07004011 71.625 196.5 C61.36275315 202.35057377 50.96059732 207.91475832 40.52636719 213.44970703 C33.0745379 217.40415266 25.65841036 221.41186352 18.30029297 225.53857422 C12.25565668 228.92396534 6.16162987 232.21398961 0.0625 235.5 C-7.80451256 239.7415295 -15.61266054 244.07004011 -23.375 248.5 C-33.63724685 254.35057377 -44.03940268 259.91475832 -54.47363281 265.44970703 C-61.9254621 269.40415266 -69.34158964 273.41186352 -76.69970703 277.53857422 C-82.74434332 280.92396534 -88.83837013 284.21398961 -94.9375 287.5 C-102.80451256 291.7415295 -110.61266054 296.07004011 -118.375 300.5 C-128.63724685 306.35057377 -139.03940268 311.91475832 -149.47363281 317.44970703 C-156.9254621 321.40415266 -164.34158964 325.41186352 -171.69970703 329.53857422 C-177.74434332 332.92396534 -183.83837013 336.21398961 -189.9375 339.5 C-197.80451256 343.7415295 -205.61266054 348.07004011 -213.375 352.5 C-223.63724685 358.35057377 -234.03940268 363.91475832 -244.47363281 369.44970703 C-251.91126322 373.39661777 -259.31271319 377.3976441 -266.65795898 381.5144043 C-273.11598622 385.12939999 -279.61725132 388.6629126 -286.125 392.1875 C-287.1670459 392.75235107 -288.2090918 393.31720215 -289.28271484 393.89916992 C-294.85577916 396.91373705 -294.85577916 396.91373705 -297.25 398.1875 C-298.15627388 398.78775246 -298.15627388 398.78775246 -299.08085632 399.40013123 C-301.25 400.1875 -301.25 400.1875 -303.63975525 399.4500885 C-304.5268367 398.98710861 -305.41391815 398.52412872 -306.32788086 398.04711914 C-307.34091782 397.52900162 -308.35395477 397.01088409 -309.39768982 396.47706604 C-310.49235062 395.89811081 -311.58701141 395.31915558 -312.71484375 394.72265625 C-314.46323953 393.82710565 -316.21164489 392.93157332 -317.96054173 392.03700161 C-321.04312832 390.45467098 -324.1148846 388.85158245 -327.1875 387.25 C-350.2848356 375.21409073 -373.74624087 363.57799929 -400.25 362.1875 C-401.54357422 362.10822266 -401.54357422 362.10822266 -402.86328125 362.02734375 C-431.70110627 361.10995789 -454.12297442 374.20473165 -477.73046875 389.08984375 C-484.20734249 393.17112143 -490.72420987 397.18504796 -497.25 401.1875 C-505.60641771 406.31782763 -513.94102436 411.48068809 -522.25 416.6875 C-531.64921631 422.57751022 -541.08653057 428.40304193 -550.5390625 434.20703125 C-557.7970015 438.66745915 -565.03128596 443.16389951 -572.25 447.6875 C-581.64921631 453.57751022 -591.08653057 459.40304193 -600.5390625 465.20703125 C-607.7970015 469.66745915 -615.03128596 474.16389951 -622.25 478.6875 C-631.64921631 484.57751022 -641.08653057 490.40304193 -650.5390625 496.20703125 C-657.7970015 500.66745915 -665.03128596 505.16389951 -672.25 509.6875 C-681.64921631 515.57751022 -691.08653057 521.40304193 -700.5390625 527.20703125 C-707.79700202 531.66745947 -715.03125353 536.16395067 -722.25 540.6875 C-732.79997616 547.29769083 -743.39678248 553.82967168 -754.00390625 560.34765625 C-768.01857581 568.95969964 -781.98765705 577.64305518 -795.92895508 586.37329102 C-804.67682711 591.84432106 -813.46086092 597.25531399 -822.25854492 602.64575195 C-825.25957106 604.4867977 -828.25539345 606.33603482 -831.25 608.1875 C-832.2299292 608.7870752 -833.2098584 609.38665039 -834.21948242 610.00439453 C-839.5569789 613.31851151 -844.41403126 616.69974503 -848.9375 621.0625 C-849.48438477 621.58078369 -850.03126953 622.09906738 -850.59472656 622.63305664 C-872.85235501 643.95286366 -887.60770053 671.76108325 -888.60682619 702.94988167 C-888.68044595 707.00018611 -888.68649854 711.04899614 -888.68237305 715.09985352 C-888.69141598 716.9250046 -888.70174928 718.75014966 -888.71325684 720.57528687 C-888.74055607 725.47290089 -888.75007404 730.37039887 -888.75611091 735.26807904 C-888.76556596 740.40768252 -888.79177443 745.54720168 -888.81611633 750.68675232 C-888.85959048 760.39368587 -888.88825417 770.10060287 -888.91143972 779.80760378 C-888.93859438 790.86950532 -888.98249908 801.93132122 -889.02772844 812.99316132 C-889.12030101 835.72456095 -889.1921064 858.45598743 -889.25 881.1875 C-893.02511451 879.96129162 -896.40931443 878.69931364 -899.84765625 876.7109375 C-900.71632324 876.21343994 -901.58499023 875.71594238 -902.47998047 875.20336914 C-903.41471191 874.66188232 -904.34944336 874.12039551 -905.3125 873.5625 C-907.37809178 872.38008647 -909.44453913 871.19916662 -911.51171875 870.01953125 C-912.60532715 869.3951416 -913.69893555 868.77075195 -914.82568359 868.12744141 C-920.72989448 864.78259186 -926.67820136 861.51832715 -932.625 858.25 C-942.75459984 852.67726265 -952.8589435 847.06203553 -962.94140625 841.40429688 C-970.492623 837.16813144 -978.05526764 832.95298718 -985.625 828.75 C-987.30529297 827.81704102 -987.30529297 827.81704102 -989.01953125 826.86523438 C-992.42950492 824.97232706 -995.83970719 823.07983229 -999.25 821.1875 C-1013.46123818 813.30184725 -1027.66444324 805.40276713 -1041.84082031 797.45458984 C-1049.4265944 793.20354972 -1057.02281228 788.97161245 -1064.625 784.75 C-1065.74358398 784.12883301 -1066.86216797 783.50766602 -1068.01464844 782.86767578 C-1073.72484667 779.69762175 -1079.43627258 776.52978988 -1085.1484375 773.36328125 C-1095.66334037 767.53163717 -1106.1672066 761.68354535 -1116.625 755.75 C-1125.87323398 750.50360828 -1135.17175448 745.35194848 -1144.48669434 740.22540283 C-1153.99458266 734.99222665 -1163.47673203 729.71536566 -1172.94140625 724.40429688 C-1180.492623 720.16813144 -1188.05526764 715.95298718 -1195.625 711.75 C-1197.30529297 710.81704102 -1197.30529297 710.81704102 -1199.01953125 709.86523438 C-1202.42950492 707.97232706 -1205.83970719 706.07983229 -1209.25 704.1875 C-1216.01618452 700.43302197 -1222.78167196 696.67733691 -1229.54296875 692.9140625 C-1233.55198516 690.6832341 -1237.56556687 688.46119766 -1241.58612061 686.25126648 C-1244.45587566 684.67227042 -1247.32114561 683.08515869 -1250.1875 681.5 C-1251.24211426 680.9237085 -1252.29672852 680.34741699 -1253.38330078 679.75366211 C-1254.84678955 678.94167358 -1254.84678955 678.94167358 -1256.33984375 678.11328125 C-1257.19441162 677.64317627 -1258.04897949 677.17307129 -1258.92944336 676.6887207 C-1261.38622998 675.09936974 -1263.26004171 673.32322596 -1265.25 671.1875 C-1264.34012329 670.69890503 -1264.34012329 670.69890503 -1263.41186523 670.20043945 C-1249.24337236 662.5826987 -1235.18178296 654.80083509 -1221.19482422 646.85546875 C-1216.09839502 643.9688161 -1210.98672022 641.10946169 -1205.875 638.25 C-1204.83609619 637.66871338 -1203.79719238 637.08742676 -1202.72680664 636.48852539 C-1200.62035293 635.31009089 -1198.51382608 634.13178711 -1196.40722656 632.95361328 C-1191.18706289 630.03351863 -1185.96861321 627.11036434 -1180.75 624.1875 C-1178.66667499 623.02081846 -1176.58334166 621.8541518 -1174.5 620.6875 C-1172.953125 619.82125 -1172.953125 619.82125 -1171.375 618.9375 C-1068.25 561.1875 -965.125 503.4375 -108.87280273 23.9362793 C-106.79678251 22.77370148 -104.72077333 21.61110393 -102.64477539 20.44848633 C-97.32464352 17.46909553 -92.00429955 14.4900845 -86.68359375 11.51171875 C-85.06553833 10.60546753 -85.06553833 10.60546753 -83.41479492 9.6809082 C-81.28446003 8.48882959 -79.15313114 7.29852536 -77.02075195 6.11010742 C-72.50203985 3.58876317 -67.99653902 1.05568871 -63.546875 -1.5859375 C-41.79381321 -14.44127585 -21.51332385 -13.13007827 0 0 Z " fill="#06CEE1" transform="translate(1609.25,133.8125)"/>
<path d="M0 0 C0.50259737 30.59033273 0.89157196 61.17971569 1.12343725 91.7731948 C1.15095062 95.39030723 1.17942592 99.00741148 1.20849609 102.62451172 C1.21715234 103.70459636 1.21715234 103.70459636 1.22598346 104.8065009 C1.32154616 116.44453431 1.49490143 128.08016097 1.69736151 139.71676959 C1.90358467 151.66995788 2.02539139 163.62189194 2.06994689 175.57678592 C2.097352 182.28780595 2.1656006 188.99304756 2.32606125 195.70236588 C2.47606528 202.02603844 2.52134211 208.34206041 2.48836899 214.66734314 C2.49439407 216.98074435 2.53781254 219.29441595 2.62252045 221.60627365 C3.11870764 235.8539935 3.11870764 235.8539935 0 242 C-5.42980417 247.75193848 -12.39096505 251.30836869 -19.43316722 254.72903419 C-22.70215011 256.34766923 -25.68275156 258.22632575 -28.73046875 260.2265625 C-30.5489484 261.36022683 -32.36794271 262.49306611 -34.1875 263.625 C-41.30473914 268.06291625 -48.41304865 272.51386894 -55.5 277 C-67.66720171 284.69923291 -79.88808323 292.31258075 -92.10253906 299.93652344 C-103.01091318 306.74607684 -113.91268089 313.56495297 -124.77856445 320.44213867 C-132.19991801 325.13536416 -139.64891626 329.78400195 -147.09765625 334.43359375 C-153.24299963 338.27149019 -159.37791117 342.12512731 -165.5 346 C-173.67913011 351.17684221 -181.88633973 356.30799264 -190.09765625 361.43359375 C-196.24300017 365.27149053 -202.37786211 369.12520428 -208.5 373 C-221.84534608 381.44460126 -235.2517401 389.79191431 -248.65234375 398.1484375 C-249.73620361 398.82479248 -250.82006348 399.50114746 -251.93676758 400.19799805 C-254.0103258 401.49192759 -256.08435654 402.78510031 -258.15893555 404.07739258 C-259.09906494 404.66415771 -260.03919434 405.25092285 -261.0078125 405.85546875 C-261.88469727 406.3973584 -262.76158203 406.93924805 -263.66503906 407.49755859 C-265.63770915 408.76688228 -267.45377655 410.11617551 -269.3046875 411.55078125 C-272 413 -272 413 -274.84539795 412.24798584 C-277.71290308 411.11357784 -280.42682434 409.88859907 -283.16894531 408.48144531 C-284.15147278 407.98042297 -285.13400024 407.47940063 -286.14630127 406.9631958 C-287.1963031 406.42362244 -288.24630493 405.88404907 -289.328125 405.328125 C-291.59610642 404.17659526 -293.8643442 403.02557032 -296.1328125 401.875 C-299.67637601 400.07249371 -303.21786546 398.26649257 -306.75488281 396.45117188 C-339.18275746 379.83131601 -372.44856152 368.73211378 -408.640625 379.71191406 C-423.46962614 384.61199076 -436.5265289 393.68028602 -449.62109375 401.97265625 C-456.04499232 406.04063082 -462.51759395 410.02613164 -469 414 C-477.35654344 419.13012193 -485.69098907 424.29324824 -494 429.5 C-504.54997616 436.11019083 -515.14678248 442.64217168 -525.75390625 449.16015625 C-538.76607738 457.15616228 -551.74281395 465.20773558 -564.6875 473.3125 C-575.34292224 479.98303777 -586.04332656 486.57865705 -596.75390625 493.16015625 C-609.76607738 501.15616228 -622.74281395 509.20773558 -635.6875 517.3125 C-646.34292224 523.98303777 -657.04332656 530.57865705 -667.75390625 537.16015625 C-680.76607738 545.15616228 -693.74281395 553.20773558 -706.6875 561.3125 C-717.34292224 567.98303777 -728.04332656 574.57865705 -738.75390625 581.16015625 C-752.81446938 589.80040133 -766.84611703 598.4878695 -780.82177734 607.26489258 C-786.00226256 610.51638479 -791.19883855 613.73493133 -796.43359375 616.8984375 C-807.25218196 623.46967898 -817.26928881 629.76880218 -826 639 C-826.85078125 639.8559375 -827.7015625 640.711875 -828.578125 641.59375 C-849.44559746 663.35737159 -860.27543751 691.11645394 -860.31884766 721.11010742 C-860.32816576 722.59940117 -860.33833717 724.08868978 -860.34928894 725.57797241 C-860.37639109 729.58751292 -860.39167904 733.59701869 -860.40471697 737.60662627 C-860.42043492 741.80934961 -860.44719713 746.01200291 -860.4727478 750.2146759 C-860.51938314 758.1580845 -860.55620063 766.1015065 -860.58942068 774.0449813 C-860.62775032 783.09468449 -860.67713179 792.14431706 -860.72740483 801.19396055 C-860.83049771 819.79592189 -860.91983117 838.39792644 -861 857 C-865.63545507 855.16530957 -869.97099054 853.01591484 -874.375 850.6875 C-875.20588135 850.24946045 -876.0367627 849.8114209 -876.89282227 849.36010742 C-884.27718726 845.43833967 -891.54240569 841.31895736 -898.80493164 837.17724609 C-906.57517115 832.76372436 -914.42661824 828.51417653 -922.3125 824.3125 C-931.307378 819.51832152 -940.26795358 814.67454712 -949.1640625 809.69921875 C-955.36541545 806.23109414 -961.59011591 802.80518678 -967.8125 799.375 C-970.32293696 797.99092222 -972.83334691 796.60679545 -975.34375 795.22265625 C-975.97529999 794.87447845 -976.60684998 794.52630066 -977.25753784 794.16757202 C-981.66295674 791.73844856 -986.06629189 789.30557834 -990.46875 786.87109375 C-1002.84128831 780.0312123 -1015.23269843 773.23014435 -1027.67260742 766.51318359 C-1034.17137278 763.00090055 -1040.64186706 759.44201361 -1047.09086609 755.83926392 C-1053.22422594 752.41750009 -1059.38685976 749.0505558 -1065.5546875 745.69140625 C-1066.56394287 745.14133911 -1067.57319824 744.59127197 -1068.61303711 744.02453613 C-1071.07517107 742.68268041 -1073.53749531 741.34117523 -1076 740 C-1076.47967704 709.90243982 -1076.85101184 679.8050111 -1077.07237192 649.70446895 C-1077.09863489 646.14615336 -1077.12581584 642.58784532 -1077.15356445 639.02954102 C-1077.15907297 638.32118474 -1077.16458149 637.61282846 -1077.17025694 636.88300683 C-1077.26149243 625.4319223 -1077.42697795 613.98306498 -1077.62020872 602.53329924 C-1077.81701028 590.77333666 -1077.9333184 579.0145353 -1077.97585839 567.25299376 C-1078.00202362 560.65047882 -1078.067235 554.05209472 -1078.22033119 547.45112038 C-1078.36343714 541.23019609 -1078.40674999 535.01635737 -1078.37526131 528.79394341 C-1078.38101588 526.51724245 -1078.42250469 524.24029285 -1078.50331497 521.96501923 C-1078.97510484 507.99006651 -1078.97510484 507.99006651 -1076 502 C-1070.94466242 496.60068755 -1064.38791167 493.45618267 -1057.76985681 490.36190546 C-1053.20475849 488.11730123 -1048.96692472 485.36530425 -1044.6875 482.625 C-1043.71925293 482.0261499 -1042.75100586 481.4272998 -1041.75341797 480.81030273 C-1035.26074154 476.78904538 -1028.78523828 472.74075004 -1022.3125 468.6875 C-1011.65712868 462.01688174 -1000.95667265 455.42134246 -990.24609375 448.83984375 C-977.23392262 440.84383772 -964.25718605 432.79226442 -951.3125 424.6875 C-940.65707776 418.01696223 -929.95667344 411.42134295 -919.24609375 404.83984375 C-906.23392262 396.84383772 -893.25718605 388.79226442 -880.3125 380.6875 C-869.65707776 374.01696223 -858.95667344 367.42134295 -848.24609375 360.83984375 C-835.23392262 352.84383772 -822.25718605 344.79226442 -809.3125 336.6875 C-798.65707776 330.01696223 -787.95667344 323.42134295 -777.24609375 316.83984375 C-765.23915367 309.46155427 -753.25698155 302.04403769 -741.31225586 294.56542969 C-732.06793174 288.77822849 -722.81844716 282.99905863 -713.54403687 277.26016235 C-711.84909583 276.2101706 -710.15657526 275.15627483 -708.46411133 274.10229492 C-707.4305249 273.46396729 -706.39693848 272.82563965 -705.33203125 272.16796875 C-704.42171143 271.60360107 -703.5113916 271.0392334 -702.57348633 270.45776367 C-700.00644652 269.00365166 -697.83766265 267.82120304 -695 267 C-692.43615723 267.75086975 -692.43615723 267.75086975 -689.68164062 269.17211914 C-688.12346619 269.9589785 -688.12346619 269.9589785 -686.53381348 270.76173401 C-685.41921753 271.34696335 -684.30462158 271.93219269 -683.15625 272.53515625 C-681.38192421 273.4374911 -679.60759524 274.33981977 -677.83309174 275.24180508 C-675.34375562 276.51279581 -672.86302983 277.80013833 -670.38208008 279.08740234 C-666.07878638 281.31692044 -661.76403733 283.52409482 -657.44665527 285.72618103 C-655.1529867 286.89813432 -652.86308372 288.07749885 -650.57775879 289.26564026 C-616.63425252 306.70436881 -581.39961177 306.25623521 -545.49365234 294.86230469 C-538.95919728 292.60269089 -532.99705131 289.4064009 -527 286 C-526.20706543 285.55301758 -525.41413086 285.10603516 -524.59716797 284.64550781 C-520.93083282 282.57653282 -517.26802027 280.50169353 -513.61352539 278.41186523 C-505.165729 273.59889562 -496.59974306 269.03305466 -488 264.5 C-477.62422854 259.02963995 -467.34798535 253.43102193 -457.16796875 247.6015625 C-449.74528535 243.37063296 -442.19705997 239.42017737 -434.60302734 235.50732422 C-428.00100298 232.08855826 -421.5138869 228.50680618 -415.0625 224.8125 C-405.12568754 219.12443605 -395.04567957 213.74220734 -384.91925049 208.40289307 C-375.23951002 203.29555819 -365.66645803 198.04075382 -356.16796875 192.6015625 C-348.74528535 188.37063296 -341.19705997 184.42017737 -333.60302734 180.50732422 C-327.00100298 177.08855826 -320.5138869 173.50680618 -314.0625 169.8125 C-304.12568754 164.12443605 -294.04567957 158.74220734 -283.91925049 153.40289307 C-274.23951002 148.29555819 -264.66645803 143.04075382 -255.16796875 137.6015625 C-247.74528535 133.37063296 -240.19705997 129.42017737 -232.60302734 125.50732422 C-226.00100298 122.08855826 -219.5138869 118.50680618 -213.0625 114.8125 C-203.12568754 109.12443605 -193.04567957 103.74220734 -182.91925049 98.40289307 C-173.23951002 93.29555819 -163.66645803 88.04075382 -154.16796875 82.6015625 C-146.74528535 78.37063296 -139.19705997 74.42017737 -131.60302734 70.50732422 C-125.00100298 67.08855826 -118.5138869 63.50680618 -112.0625 59.8125 C-102.12568754 54.12443605 -92.04567957 48.74220734 -81.91925049 43.40289307 C-72.24182425 38.29677925 -62.6716754 33.04223078 -53.17456055 27.60595703 C-45.6988688 23.34617025 -38.10577078 19.34501851 -30.45800781 15.40405273 C-22.92755819 11.51583665 -15.49872171 7.46285106 -8.11645508 3.30029297 C-7.33939209 2.86604004 -6.5623291 2.43178711 -5.76171875 1.984375 C-4.740177 1.40768066 -4.740177 1.40768066 -3.69799805 0.81933594 C-2 0 -2 0 0 0 Z " fill="#06CEE1" transform="translate(2277,549)"/>
<path d="M0 0 C0 71.28 0 142.56 0 216 C-7.92 220.29 -15.84 224.58 -24 229 C-31.80984442 233.44264865 -31.80984442 233.44264865 -39.60546875 237.91015625 C-45.4628588 241.2749939 -51.35395827 244.57847501 -57.25 247.875 C-58.29518799 248.45942871 -59.34037598 249.04385742 -60.41723633 249.64599609 C-62.54526011 250.8353922 -64.67343469 252.02451853 -66.80175781 253.21337891 C-72.07757149 256.16058535 -77.35164478 259.11089729 -82.625 262.0625 C-83.66108398 262.64241699 -84.69716797 263.22233398 -85.76464844 263.81982422 C-93.63377721 268.22757142 -101.48737689 272.6623324 -109.33642578 277.10571289 C-117.43152664 281.68563509 -125.54644164 286.22967662 -133.6640625 290.76953125 C-140.61969829 294.66158055 -147.56381803 298.57339742 -154.5 302.5 C-167.69637709 309.96932638 -180.931318 317.36936445 -194.16601562 324.77050781 C-206.23799859 331.52231793 -218.29951026 338.291563 -230.33642578 345.10571289 C-238.43152664 349.68563509 -246.54644164 354.22967662 -254.6640625 358.76953125 C-261.61969795 362.66158037 -268.56385204 366.57333772 -275.5 370.5 C-284.53940309 375.61734803 -293.59814296 380.6993318 -302.6640625 385.76953125 C-309.61969829 389.66158055 -316.56381803 393.57339742 -323.5 397.5 C-336.69637709 404.96932638 -349.931318 412.36936445 -363.16601562 419.77050781 C-375.23799859 426.52231793 -387.29951026 433.291563 -399.33642578 440.10571289 C-407.43152664 444.68563509 -415.54644164 449.22967662 -423.6640625 453.76953125 C-430.61969795 457.66158037 -437.56385204 461.57333772 -444.5 465.5 C-453.53940309 470.61734803 -462.59814296 475.6993318 -471.6640625 480.76953125 C-478.61969795 484.66158037 -485.56385204 488.57333772 -492.5 492.5 C-501.53940309 497.61734803 -510.59814296 502.6993318 -519.6640625 507.76953125 C-526.61969829 511.66158055 -533.56381803 515.57339742 -540.5 519.5 C-553.69637709 526.96932638 -566.931318 534.36936445 -580.16601562 541.77050781 C-592.23799859 548.52231793 -604.29951026 555.291563 -616.33642578 562.10571289 C-624.43152664 566.68563509 -632.54644164 571.22967662 -640.6640625 575.76953125 C-647.61969795 579.66158037 -654.56385204 583.57333772 -661.5 587.5 C-670.53940309 592.61734803 -679.59814296 597.6993318 -688.6640625 602.76953125 C-695.61969829 606.66158055 -702.56381803 610.57339742 -709.5 614.5 C-722.69637709 621.96932638 -735.931318 629.36936445 -749.16601562 636.77050781 C-761.23799859 643.52231793 -773.29951026 650.291563 -785.33642578 657.10571289 C-793.43152664 661.68563509 -801.54644164 666.22967662 -809.6640625 670.76953125 C-816.61969795 674.66158037 -823.56385204 678.57333772 -830.5 682.5 C-839.53940309 687.61734803 -848.59814296 692.6993318 -857.6640625 697.76953125 C-864.61969795 701.66158037 -871.56385204 705.57333772 -878.5 709.5 C-887.53940309 714.61734803 -896.59814296 719.6993318 -905.6640625 724.76953125 C-912.61969829 728.66158055 -919.56381803 732.57339742 -926.5 736.5 C-936.52859476 742.17631911 -946.57779652 747.81511743 -956.63671875 753.4375 C-960.97830854 755.86508446 -965.31344289 758.30373126 -969.64453125 760.75 C-1010.03803139 783.54274874 -1010.03803139 783.54274874 -1031.8203125 778.14453125 C-1034.51310703 777.17525754 -1036.83276085 776.08916019 -1039.36038208 774.77305603 C-1043.34552276 772.73115024 -1047.34303969 771.12597436 -1051.5451355 769.5861969 C-1059.37960771 766.30291139 -1068.33251246 762.2678484 -1071.86344624 753.97114325 C-1075.61015849 741.41971429 -1074.64998141 727.42915924 -1074.42659998 714.485852 C-1074.35276189 708.970006 -1074.40862794 703.45512531 -1074.44381714 697.93910217 C-1074.48185649 688.67983765 -1074.41229302 679.42601372 -1074.27978516 670.16772461 C-1074.12853889 659.49495093 -1074.15685833 648.8338703 -1074.27943718 638.16099256 C-1074.39292263 627.85144128 -1074.37023677 617.5462545 -1074.28945541 607.23654366 C-1074.25805561 602.8682134 -1074.27492942 598.50413299 -1074.33221817 594.13609123 C-1074.71093899 560.01546454 -1074.71093899 560.01546454 -1068.60124397 552.72558022 C-1063.00447654 547.61924436 -1056.8423227 544.58151082 -1049.75827122 542.03687763 C-1046.14069926 540.67697531 -1043.25901522 538.84841845 -1040.07421875 536.67578125 C-1039.16631592 536.10899658 -1038.25841309 535.54221191 -1037.32299805 534.95825195 C-1026.19262702 528.00782758 -1015.08756169 521.01846943 -1004 514 C-992.65679314 506.81970618 -981.29176255 499.67589562 -969.90356445 492.56713867 C-963.75779152 488.72903409 -957.62248977 484.87512646 -951.5 481 C-944.34938334 476.47413799 -937.17873534 471.98112022 -930 467.5 C-919.64435712 461.03499255 -909.31507724 454.52948379 -899 448 C-887.65679314 440.81970618 -876.29176255 433.67589562 -864.90356445 426.56713867 C-858.75779152 422.72903409 -852.62248977 418.87512646 -846.5 415 C-839.34938334 410.47413799 -832.17873534 405.98112022 -825 401.5 C-814.64435712 395.03499255 -804.31507724 388.52948379 -794 382 C-782.65679314 374.81970618 -771.29176255 367.67589562 -759.90356445 360.56713867 C-753.0016141 356.25679275 -746.11583395 351.92179895 -739.24023438 347.56958008 C-731.69044017 342.79492757 -724.11359378 338.06378263 -716.53320312 333.33789062 C-715.58380859 332.74556641 -714.63441406 332.15324219 -713.65625 331.54296875 C-712.72296875 330.96724121 -711.7896875 330.39151367 -710.828125 329.79833984 C-708.87061505 328.55360415 -706.94471466 327.25826422 -705.046875 325.92431641 C-704.09296875 325.2647998 -703.1390625 324.6052832 -702.15625 323.92578125 C-701.30869141 323.31774658 -700.46113281 322.70971191 -699.58789062 322.08325195 C-697 321 -697 321 -694.35180664 321.47851562 C-689.56386404 323.65190468 -684.88672694 326.00637959 -680.21484375 328.41796875 C-678.05174921 329.51950276 -675.8883264 330.62039234 -673.72460938 331.72070312 C-670.35190838 333.44073443 -666.98153187 335.16478317 -663.61694336 336.90063477 C-632.19070608 353.08821288 -597.4735114 365.75030087 -561.98388672 354.65820312 C-561.3292041 354.44099609 -560.67452148 354.22378906 -560 354 C-559.05084717 353.68579102 -559.05084717 353.68579102 -558.08251953 353.36523438 C-544.28929373 348.53600272 -532.17473203 339.89122617 -520 332 C-518.4858726 331.02443607 -516.97156936 330.04914495 -515.45703125 329.07421875 C-512.735559 327.31862688 -510.01895077 325.55577526 -507.3046875 323.7890625 C-502.39108381 320.59671186 -497.44594352 317.45442802 -492.5 314.3125 C-481.37519469 307.2438666 -470.27251814 300.14101438 -459.17333984 293.03222656 C-453.94966156 289.68695051 -448.72477559 286.34356187 -443.5 283 C-441.41666075 281.66667591 -439.33332742 280.33334257 -437.25 279 C-334.125 213 -231 147 -49.75 31 C-48.71713867 30.33895264 -47.68427734 29.67790527 -46.62011719 28.99682617 C-44.5531191 27.67397975 -42.48606256 26.35122466 -40.41894531 25.02856445 C-35.54480437 21.90965325 -30.67125806 18.7898246 -25.79980469 15.66671753 C-24.0665501 14.55558184 -22.33310839 13.44473868 -20.59960938 12.33398438 C-18.4182455 10.93613079 -16.23723757 9.53772154 -14.05664062 8.13867188 C-13.07373047 7.50896484 -12.09082031 6.87925781 -11.078125 6.23046875 C-10.21606445 5.67770264 -9.35400391 5.12493652 -8.46582031 4.55541992 C-1.24407471 0 -1.24407471 0 0 0 Z " fill="#06CEE1" transform="translate(2593,709)"/>
<path d="M0 0 C4.05520681 1.62208272 7.84003115 3.41142738 11.6796875 5.45703125 C12.32040695 5.79621582 12.9611264 6.13540039 13.6212616 6.48486328 C15.70749306 7.59099665 17.79138331 8.70144998 19.875 9.8125 C20.59074188 10.19304535 21.30648376 10.5735907 22.04391479 10.96566772 C32.05965643 16.29319581 41.98221338 21.75849517 51.82763672 27.39575195 C59.24503421 31.62415781 66.78748149 35.57316293 74.37719727 39.48168945 C82.15790934 43.50925104 89.77086107 47.79488113 97.375 52.14453125 C104.00689479 55.9200257 110.71576921 59.50648985 117.5 63 C126.25160653 67.50660173 134.83100733 72.25727457 143.375 77.14453125 C150.00689479 80.9200257 156.71576921 84.50648985 163.5 88 C172.25160653 92.50660173 180.83100733 97.25727457 189.375 102.14453125 C196.00692306 105.9200418 202.71605799 109.505889 209.5 113 C217.66507326 117.21280039 225.74013185 121.56104484 233.75 126.0625 C235.22436523 126.88524414 235.22436523 126.88524414 236.72851562 127.72460938 C237.63794922 128.23958984 238.54738281 128.75457031 239.484375 129.28515625 C240.28584961 129.73769775 241.08732422 130.19023926 241.91308594 130.65649414 C243.90119629 131.93639251 245.40863244 133.26155536 247 135 C235.5278636 141.68534709 223.85616845 147.98891223 212.16992188 154.29003906 C207.0685588 157.04188341 201.9716413 159.80192294 196.875 162.5625 C195.88064941 163.10092529 194.88629883 163.63935059 193.86181641 164.1940918 C186.32926934 168.27478438 178.80734367 172.37470382 171.28857422 176.48071289 C163.52237613 180.71991918 155.74253088 184.93366902 147.9609375 189.14453125 C141.30027424 192.75023914 134.64735267 196.36981749 128 200 C119.33080682 204.73432884 110.64825432 209.4435539 101.9609375 214.14453125 C95.30027424 217.75023914 88.64735267 221.36981749 82 225 C73.33080682 229.73432884 64.64825432 234.4435539 55.9609375 239.14453125 C49.30027321 242.7502397 42.64748732 246.37006287 36 250 C32.33366693 252.00061198 28.6669024 254.00043177 25 256 C23.91895996 256.58974609 22.83791992 257.17949219 21.72412109 257.78710938 C18.37980044 259.61032368 15.0338482 261.43051026 11.6875 263.25 C10.63626953 263.82363281 9.58503906 264.39726563 8.50195312 264.98828125 C7.05272461 265.77525391 7.05272461 265.77525391 5.57421875 266.578125 C4.28390747 267.28050293 4.28390747 267.28050293 2.9675293 267.99707031 C1 269 1 269 0 269 C0 180.23 0 91.46 0 0 Z " fill="#06CEE1" transform="translate(1950,329)"/>
<path d="M0 0 C3.794991 0.94874775 6.2080617 2.10549514 9.56640625 4.03515625 C10.67773926 4.67138916 11.78907227 5.30762207 12.93408203 5.96313477 C14.14368118 6.66270451 15.35315033 7.36249906 16.5625 8.0625 C17.82132824 8.78659185 19.08028208 9.51046538 20.33935547 10.23413086 C29.9364147 15.76123661 39.46790071 21.39679275 48.98388672 27.06225586 C56.68455127 31.64310367 64.42088659 36.15693483 72.1875 40.625 C73.25709961 41.24036621 74.32669922 41.85573242 75.42871094 42.48974609 C76.48993164 43.10027832 77.55115234 43.71081055 78.64453125 44.33984375 C88.79132486 50.17817181 98.90687436 56.06941151 109 62 C109.97984863 62.57508301 110.95969727 63.15016602 111.96923828 63.74267578 C114.79582617 65.40540214 117.61751906 67.07609803 120.4375 68.75 C121.29069824 69.25168701 122.14389648 69.75337402 123.02294922 70.27026367 C123.79783691 70.73279541 124.57272461 71.19532715 125.37109375 71.671875 C126.3909436 72.27660645 126.3909436 72.27660645 127.43139648 72.89355469 C129 74 129 74 130 76 C129.50935059 76.2902002 129.01870117 76.58040039 128.51318359 76.87939453 C117.72629012 83.27282689 107.05458195 89.81748461 96.49316406 96.5769043 C89.72915778 100.905042 82.93772215 105.18646316 76.125 109.4375 C75.12758789 110.05987549 74.13017578 110.68225098 73.10253906 111.32348633 C71.07924663 112.58551906 69.05580884 113.84731879 67.03222656 115.10888672 C61.02589853 118.85486232 55.02465171 122.60897267 49.02246094 126.36157227 C43.89947115 129.56406973 38.77514547 132.76439506 33.6484375 135.9609375 C31.55724534 137.26555074 29.46609876 138.57023706 27.375 139.875 C26.3751709 140.49834229 25.3753418 141.12168457 24.34521484 141.76391602 C17.64692714 145.94768867 11.00360132 150.20565022 4.4140625 154.55859375 C2 156 2 156 0 156 C0 104.52 0 53.04 0 0 Z " fill="#06CEE1" transform="translate(2378,565)"/>
<path d="M0 0 C12.12376769 8.64495462 19.12126666 19.51434843 22.88671875 33.9765625 C25.34134045 50.76220787 22.05952091 65.66389282 12.2734375 79.62109375 C3.40267848 90.59677864 -8.72583301 96.5519773 -22.3515625 99.37109375 C-39.34030267 100.62951895 -54.16303024 96.92759287 -67.5390625 85.93359375 C-78.02328261 75.93118522 -83.95600159 63.03132261 -84.9296875 48.61328125 C-85.1728319 32.44417879 -80.29127181 18.57383719 -69.01171875 6.8046875 C-50.21058931 -11.16083618 -22.04723014 -14.305727 0 0 Z " fill="#06CEE1" transform="translate(1017.7265625,1563.37890625)"/>
<path d="M0 0 C11.76036473 8.87868595 19.62968643 20.35385932 22.5859375 34.87890625 C24.67485481 50.62461314 21.94070456 64.7436548 13 78 C3.15662153 89.78793562 -8.75512048 97.67494335 -24.27441406 99.22753906 C-41.04488351 100.31724264 -54.69430304 96.75237452 -67.6953125 85.7109375 C-78.4316738 75.615553 -84.91994355 62.42550662 -85.421875 47.5871582 C-85.53631827 31.38449465 -80.19902576 17.2987889 -68.81640625 5.54296875 C-49.58301356 -11.82310426 -21.91690516 -13.90711251 0 0 Z " fill="#06CEE1" transform="translate(1928,1724)"/>
<path d="M0 0 C12.51036245 9.74532098 20.26459916 21.55879632 22.6796875 37.30078125 C24.47261123 52.4094434 20.28219468 66.90870319 11.41015625 79.203125 C2.18738918 90.57425429 -11.55710339 97.49165744 -26 99 C-39.83237715 100.36434676 -53.89166331 96.25235808 -65 88 C-75.8966984 78.79043246 -83.80866753 67.17408848 -85.22753906 52.67480469 C-86.31884378 35.13843008 -82.61511686 21.01894539 -71.3125 7.3125 C-53.31607121 -12.08936419 -21.61998895 -15.1610656 0 0 Z " fill="#06CEE1" transform="translate(2624,1671)"/>
<path d="M0 0 C12.83386558 9.61466853 21.81152284 21.57945702 24.3359375 37.75 C25.27749628 54.28159941 22.66383833 68.63754899 11.8203125 81.8046875 C1.28940967 92.90726792 -11.91067928 99.6197673 -27.33349609 100.22265625 C-42.68279061 100.40274435 -56.73781051 95.70197578 -67.9765625 85 C-79.25956897 73.03750978 -84.16183143 58.95255144 -83.875 42.6640625 C-83.04053395 27.18008143 -75.9955726 14.14678351 -64.6640625 3.75 C-46.39964628 -10.63690472 -19.73673676 -13.1141108 0 0 Z " fill="#06CEE1" transform="translate(588.6640625,1509.25)"/>
<path d="M0 0 C13.01135904 11.2451112 19.78769679 23.97610999 21.49609375 41.12109375 C22.11671368 55.13676055 16.9994479 68.79205749 7.90234375 79.30078125 C-1.74231534 89.36407328 -13.45959021 96.6160257 -27.67578125 97.26171875 C-44.34053792 97.54723981 -58.86928951 94.46521524 -71.53515625 82.67578125 C-84.2599381 68.80266543 -87.6998408 53.76954454 -86.94042969 35.58447266 C-86.02856775 24.45198775 -80.88749475 15.28014892 -73.72265625 6.92578125 C-73.17867187 6.2709375 -72.6346875 5.61609375 -72.07421875 4.94140625 C-53.81338888 -15.19004522 -20.99474384 -15.99456095 0 0 Z " fill="#06CEE1" transform="translate(2518.72265625,2154.07421875)"/>
<path d="M0 0 C8.71908774 8.1028978 15.42063988 20.2756907 16.48950195 32.30444336 C17.02919346 50.78081436 13.45867767 65.32026369 0.57421875 79.2109375 C-13.07557649 91.89416692 -28.28189059 94.09302766 -46.07275391 93.48730469 C-59.0542125 92.61944994 -70.56306748 84.46880511 -79.32421875 75.31640625 C-89.08968868 62.90376761 -92.81689952 48.96014826 -91.6875 33.3125 C-89.7031591 18.24954861 -82.52689426 5.42648067 -70.5625 -3.8125 C-48.00345134 -19.54286366 -20.89577959 -17.26019632 0 0 Z " fill="#06CEE1" transform="translate(628.6875,1991.6875)"/>
<path d="M0 0 C4.49787989 0.89957598 6.91299263 1.84794059 10.8125 4.03515625 C11.95565674 4.67155029 13.09881348 5.30794434 14.27661133 5.96362305 C15.51776319 6.66320913 16.75889212 7.36283589 18 8.0625 C19.29476094 8.78563787 20.58993428 9.50803778 21.88549805 10.22973633 C24.5807431 11.73194812 27.27417924 13.2373292 29.96630859 14.74511719 C35.63171395 17.91559494 41.31517609 21.0532636 47.00033569 24.18814087 C48.81609109 25.18948039 50.63132764 26.19175596 52.4465332 27.1940918 C61.14994345 31.99688 69.88459197 36.74058252 78.63085938 41.46484375 C84.87570987 44.84089945 91.10442396 48.24425913 97.3125 51.6875 C98.05395264 52.09790527 98.79540527 52.50831055 99.55932617 52.93115234 C102.44481308 54.53698257 105.25082359 56.16721573 108 58 C108 58.66 108 59.32 108 60 C94.13120312 67.67503731 80.26023526 75.34402291 66.3125 82.875 C58.93135898 86.86145427 51.56992744 90.87839616 44.24462891 94.96655273 C39.37683172 97.68248404 34.4998649 100.381255 29.6171875 103.0703125 C28.96616562 103.42894882 28.31514374 103.78758514 27.64439392 104.15708923 C25.01009279 105.60813224 22.37572411 107.05904847 19.74038696 108.50820923 C17.8928818 109.52419058 16.04600606 110.54130826 14.19921875 111.55859375 C12.58793091 112.44502563 12.58793091 112.44502563 10.9440918 113.34936523 C9.03343409 114.42059475 7.14901089 115.54057315 5.30004883 116.71508789 C3 118 3 118 0 118 C0 79.06 0 40.12 0 0 Z " fill="#06CEE1" transform="translate(2699,747)"/>
</svg>
